M48
;Layer_Color=9474304
;FILE_FORMAT=2:5
INCH,TZ
;TYPE=PLATED
T01F00S00C0.01181
T02F00S00C0.01600
T03F00S00C0.01800
T04F00S00C0.02400
T05F00S00C0.04000
%
T01
X227362Y301969
X246573Y301155
X268522
X299213Y305512
Y308366
Y311811
X299311Y314961
X299213Y318898
X299311Y322835
X299213Y326772
Y330807
Y334646
X299410Y338681
X299213Y342520
X299705Y346654
X299213Y350394
X302658Y354331
X304331Y364961
X294094Y369291
X268996Y373228
Y363386
Y353478
Y343602
Y333727
Y324500
Y313976
X247500
X246000Y324500
Y333727
Y343602
Y353478
Y363386
Y373228
X262366Y378019
X262000Y385000
X260000Y387000
X262000Y389000
X268701Y394685
Y401575
X261811Y403543
X252953Y404528
Y396654
X242126Y408465
X242520Y411417
X242126Y414370
X245177Y415256
X240354Y431791
X230315Y428346
X226279Y439961
Y442815
X219980Y452067
X219488Y455807
X212205Y458366
X213779Y468701
X223524Y465256
X226279Y464173
X227362Y461417
X224016Y461909
X236614Y463681
X236417Y467126
X238583Y468307
Y465551
X240846Y464961
Y467421
X245177Y467815
X248622Y465256
X249213Y460925
X243307Y460039
X242323Y457874
X243701Y455610
X242323Y462303
X239469Y462205
X252067Y467717
X249803Y452559
X241732Y445866
X267717Y443996
X267913Y453248
X275394Y458858
X279528Y462992
X271457Y463681
X289764Y464961
X298326Y466535
X305118Y465748
X297638Y457874
X299213Y453937
X304331Y449606
X312086Y457339
X310039Y436024
X312008Y402559
Y393701
X299213
X290354Y394685
Y401575
X299213Y403543
X278543Y401575
Y394685
X270866Y425000
X275098Y433563
X265748Y434252
X279134Y447638
X200295Y466142
X224311Y373228
Y363386
Y353478
Y343602
Y333727
Y324500
X225098Y313976
X334646Y317618
Y339567
Y361516
X330709Y420276
X334646Y427165
X329724Y437992
X320866Y438976
X316929Y450787
X316535Y462598
X330709Y449803
X342520Y436024
X339567Y468504
X314173Y427953
Y420079
X316929Y480315
X339567Y474409
X338583Y520669
Y529528
X330000Y531000
Y528000
X327000
Y531000
X305118Y513779
X293406Y509154
X293898Y500689
X289567Y496555
X288583Y490945
X295669Y489764
Y493898
X295276Y483858
X307087Y485039
X306988Y490846
X308563Y499902
X311417Y482283
X307087Y474016
X294882Y469685
X289665Y476083
X273622Y475197
X268701Y480315
X270177Y483760
X256693Y485827
X252459Y485823
X250000Y486614
X247441Y487992
X246850Y490945
Y493701
X246949Y496752
X240551Y488681
X237106Y480807
Y478346
X237008Y475787
X228839Y473327
X225590Y478051
Y480709
X231004Y484842
X232776Y502756
X239469Y504921
X236614Y511811
X228346Y513779
X230315Y515748
X228346Y517717
Y521654
X230315Y519685
Y523622
X226673Y527756
X219783Y509547
X220965Y505807
X223524Y503248
X225689Y500591
X209350Y497736
X207087Y507087
X203937Y509055
X200394Y488583
X206890Y486221
X206693Y483268
X206594Y480315
Y477461
X210531Y474016
X213878Y474114
X216929Y474213
X219783Y474311
X218406Y471457
X215453Y471358
X212205Y471260
X217028Y468799
X251772Y478248
X251969Y481201
X261417Y495669
X264567Y503150
X267520Y507283
X265551Y515059
X271161Y520374
X273524Y520276
X275886
X274705Y511221
X275497Y494451
X281594Y488779
T02
X246457Y428740
X250000Y437008
X263681Y448622
X269291Y429528
T03
X257087Y438681
T04
X304331Y440551
T05
X194646Y303386
X284646
Y313386
Y323386
Y333386
Y343386
Y353386
Y363386
Y373386
Y383386
Y393386
Y403386
Y413386
Y423386
Y433386
Y443386
Y453386
Y463386
X194646
Y453386
Y443386
Y433386
Y423386
Y413386
Y403386
Y393386
Y383386
Y373386
Y363386
Y353386
Y343386
Y333386
Y323386
Y313386
Y473386
Y483386
Y493386
Y503386
Y513386
X284646
Y503386
Y493386
Y483386
Y473386
M30
