G04*
G04 #@! TF.GenerationSoftware,Altium Limited,Altium Designer,24.2.2 (26)*
G04*
G04 Layer_Color=16711935*
%FSLAX25Y25*%
%MOIN*%
G70*
G04*
G04 #@! TF.SameCoordinates,A88BD47F-73B3-49E0-9FBC-4B96E2F328B5*
G04*
G04*
G04 #@! TF.FilePolarity,Negative*
G04*
G01*
G75*
%ADD48O,0.07299X0.05799*%
D48*
X194646Y313386D02*
D03*
Y493386D02*
D03*
X284646Y503386D02*
D03*
Y493386D02*
D03*
Y483386D02*
D03*
Y473386D02*
D03*
Y463386D02*
D03*
Y453386D02*
D03*
Y443386D02*
D03*
Y433386D02*
D03*
Y423386D02*
D03*
Y413386D02*
D03*
Y403386D02*
D03*
Y393386D02*
D03*
Y383386D02*
D03*
Y373386D02*
D03*
Y363386D02*
D03*
Y353386D02*
D03*
Y343386D02*
D03*
Y333386D02*
D03*
Y323386D02*
D03*
X194646Y443386D02*
D03*
Y433386D02*
D03*
Y423386D02*
D03*
Y413386D02*
D03*
Y403386D02*
D03*
Y393386D02*
D03*
X284646Y513386D02*
D03*
Y313386D02*
D03*
Y303386D02*
D03*
X194646Y513386D02*
D03*
Y503386D02*
D03*
Y483386D02*
D03*
Y473386D02*
D03*
Y463386D02*
D03*
Y453386D02*
D03*
Y383386D02*
D03*
Y373386D02*
D03*
Y363386D02*
D03*
Y353386D02*
D03*
Y343386D02*
D03*
Y333386D02*
D03*
Y323386D02*
D03*
Y303386D02*
D03*
M02*
