G04*
G04 #@! TF.GenerationSoftware,Altium Limited,Altium Designer,24.2.2 (26)*
G04*
G04 Layer_Physical_Order=4*
G04 Layer_Color=16711680*
%FSLAX25Y25*%
%MOIN*%
G70*
G04*
G04 #@! TF.SameCoordinates,A88BD47F-73B3-49E0-9FBC-4B96E2F328B5*
G04*
G04*
G04 #@! TF.FilePolarity,Positive*
G04*
G01*
G75*
%ADD11C,0.01000*%
%ADD12C,0.02000*%
%ADD14C,0.00800*%
%ADD15C,0.00600*%
%ADD73C,0.01200*%
%ADD76C,0.01800*%
%ADD77C,0.01600*%
%ADD80O,0.07000X0.05500*%
%ADD81C,0.01772*%
%ADD82C,0.03000*%
%ADD83C,0.02700*%
%ADD84C,0.03500*%
G36*
X346457Y546040D02*
X346726Y546040D01*
X347254Y545935D01*
X347751Y545729D01*
X348199Y545430D01*
X348579Y545049D01*
X348879Y544601D01*
X349084Y544104D01*
X349189Y543576D01*
X349189Y543307D01*
X349189Y295276D01*
Y295006D01*
X349084Y294479D01*
X348879Y293981D01*
X348579Y293533D01*
X348199Y293153D01*
X347751Y292854D01*
X347254Y292648D01*
X346726Y292543D01*
X346457Y292543D01*
X177165Y292543D01*
X176896D01*
X176368Y292648D01*
X175871Y292854D01*
X175423Y293153D01*
X175043Y293533D01*
X174744Y293981D01*
X174538Y294479D01*
X174433Y295006D01*
X174433Y295276D01*
X174433Y543307D01*
X174433Y543576D01*
X174538Y544104D01*
X174744Y544601D01*
X175043Y545049D01*
X175423Y545430D01*
X175871Y545729D01*
X176368Y545935D01*
X176896Y546040D01*
X177165Y546040D01*
X346457Y546040D01*
D02*
G37*
%LPC*%
G36*
X285446Y517162D02*
Y514186D01*
X289073D01*
X289049Y514365D01*
X288671Y515277D01*
X288070Y516060D01*
X287287Y516661D01*
X286375Y517039D01*
X285446Y517162D01*
D02*
G37*
G36*
X283846Y517162D02*
X282917Y517039D01*
X282004Y516661D01*
X281221Y516060D01*
X280620Y515277D01*
X280242Y514365D01*
X280219Y514186D01*
X283846D01*
Y517162D01*
D02*
G37*
G36*
X195396Y517168D02*
X193896D01*
X192917Y517039D01*
X192005Y516661D01*
X191221Y516060D01*
X190620Y515277D01*
X190242Y514365D01*
X190113Y513386D01*
X190242Y512407D01*
X190620Y511495D01*
X191221Y510711D01*
X192005Y510110D01*
X192917Y509732D01*
X193896Y509604D01*
X195396D01*
X196375Y509732D01*
X197287Y510110D01*
X198070Y510711D01*
X198671Y511495D01*
X199049Y512407D01*
X199178Y513386D01*
X199049Y514365D01*
X198671Y515277D01*
X198070Y516060D01*
X197287Y516661D01*
X196375Y517039D01*
X195396Y517168D01*
D02*
G37*
G36*
X265884Y516732D02*
X265218D01*
X264603Y516477D01*
X264133Y516007D01*
X263878Y515392D01*
Y514995D01*
X263847Y514945D01*
X263837Y514882D01*
X263810Y514822D01*
X263806Y514717D01*
X263799Y514696D01*
X263801Y514664D01*
X263783Y514553D01*
X263797Y514490D01*
X263795Y514425D01*
X263805Y514398D01*
X263827Y514057D01*
X263827Y513986D01*
X263837Y513937D01*
X263832Y513886D01*
X263876Y513743D01*
X263906Y513596D01*
X263934Y513555D01*
X263949Y513506D01*
X264045Y513391D01*
X264129Y513267D01*
X264171Y513239D01*
X264203Y513200D01*
X264336Y513130D01*
X264460Y513047D01*
X264475Y513044D01*
Y506307D01*
X264542Y505974D01*
X264731Y505691D01*
X274160Y496262D01*
X274065Y496127D01*
X274062Y496115D01*
X274055Y496104D01*
X274018Y495921D01*
X273977Y495739D01*
X273973Y495584D01*
X273968Y495523D01*
X273935Y495473D01*
X273925Y495427D01*
X273903Y495385D01*
X273887Y495233D01*
X273857Y495083D01*
X273866Y495037D01*
X273861Y494989D01*
X273881Y494923D01*
X273823Y494784D01*
Y494118D01*
X274078Y493503D01*
X274549Y493032D01*
X275164Y492777D01*
X275830D01*
X276445Y493032D01*
X276915Y493503D01*
X277170Y494118D01*
Y494784D01*
X277112Y494923D01*
X277132Y494989D01*
X277127Y495037D01*
X277136Y495083D01*
X277106Y495233D01*
X277091Y495385D01*
X277068Y495427D01*
X277059Y495473D01*
X277027Y495521D01*
X277017Y495658D01*
X277016Y495726D01*
X276976Y495914D01*
X276939Y496104D01*
X276935Y496109D01*
X276934Y496115D01*
X276825Y496274D01*
X276718Y496434D01*
X276712Y496438D01*
X276709Y496443D01*
X276547Y496548D01*
X276387Y496656D01*
X276381Y496657D01*
X276375Y496660D01*
X276186Y496695D01*
X276161Y496700D01*
X276113Y496773D01*
X267737Y505148D01*
X267944Y505648D01*
X268467Y505865D01*
X268938Y506336D01*
X268999Y506483D01*
X269094Y506540D01*
X269107Y506559D01*
X269126Y506571D01*
X269225Y506718D01*
X269329Y506861D01*
X269335Y506883D01*
X269347Y506902D01*
X269382Y507075D01*
X269399Y507144D01*
X269440Y507195D01*
X269475Y507232D01*
X269575Y507390D01*
X269679Y507545D01*
X269682Y507557D01*
X269688Y507568D01*
X269720Y507752D01*
X269736Y507832D01*
X292361D01*
X292458Y507735D01*
X293073Y507480D01*
X293738D01*
X294353Y507735D01*
X294824Y508206D01*
X295079Y508821D01*
Y509486D01*
X294824Y510101D01*
X294353Y510572D01*
X293738Y510827D01*
X293073D01*
X292458Y510572D01*
X291987Y510101D01*
X291732Y509486D01*
Y509370D01*
X286806D01*
X286706Y509870D01*
X287287Y510110D01*
X288070Y510711D01*
X288671Y511495D01*
X289049Y512407D01*
X289073Y512586D01*
X284646D01*
X280219D01*
X280242Y512407D01*
X280620Y511495D01*
X281221Y510711D01*
X282004Y510110D01*
X282585Y509870D01*
X282485Y509370D01*
X268837D01*
X268710Y509345D01*
X268584Y509433D01*
X268572Y509436D01*
X268562Y509443D01*
X268378Y509480D01*
X268196Y509520D01*
X268184Y509518D01*
X268172Y509521D01*
X267988Y509484D01*
X267804Y509452D01*
X267793Y509445D01*
X267781Y509443D01*
X267626Y509339D01*
X267468Y509239D01*
X267420Y509194D01*
X267397Y509173D01*
X267384Y509163D01*
X267312Y509146D01*
X267138Y509111D01*
X267119Y509098D01*
X267097Y509093D01*
X266954Y508988D01*
X266808Y508890D01*
X266795Y508871D01*
X266776Y508857D01*
X266719Y508763D01*
X266718Y508762D01*
X266217Y509001D01*
Y512746D01*
X266264Y512775D01*
X266331Y512795D01*
X266431Y512879D01*
X266542Y512947D01*
X266583Y513004D01*
X266637Y513049D01*
X266698Y513164D01*
X266774Y513270D01*
X266791Y513339D01*
X266824Y513401D01*
X266836Y513530D01*
X266865Y513657D01*
X266869Y513765D01*
X266892Y513791D01*
X266939Y513931D01*
X267000Y514065D01*
X267002Y514118D01*
X267019Y514168D01*
X267016Y514222D01*
X267224Y514726D01*
Y515392D01*
X266970Y516007D01*
X266499Y516477D01*
X265884Y516732D01*
D02*
G37*
G36*
X285041Y506386D02*
X284251D01*
X283488Y506181D01*
X282804Y505786D01*
X282245Y505228D01*
X281850Y504544D01*
X281646Y503781D01*
Y502991D01*
X281850Y502228D01*
X282245Y501544D01*
X282804Y500985D01*
X283488Y500590D01*
X284251Y500386D01*
X285041D01*
X285804Y500590D01*
X286488Y500985D01*
X287046Y501544D01*
X287441Y502228D01*
X287646Y502991D01*
Y503781D01*
X287441Y504544D01*
X287046Y505228D01*
X286488Y505786D01*
X285804Y506181D01*
X285041Y506386D01*
D02*
G37*
G36*
X195396Y507168D02*
X193896D01*
X192917Y507039D01*
X192005Y506661D01*
X191221Y506060D01*
X190620Y505277D01*
X190242Y504365D01*
X190113Y503386D01*
X190242Y502407D01*
X190340Y502171D01*
X190150Y501938D01*
X189992Y501772D01*
X189891Y501614D01*
X189786Y501457D01*
X189784Y501446D01*
X189778Y501437D01*
X189745Y501251D01*
X189709Y501067D01*
X189711Y501056D01*
X189709Y501045D01*
X189750Y500861D01*
X189786Y500677D01*
X189793Y500667D01*
X189794Y500661D01*
X185040Y495906D01*
X184829Y495591D01*
X184755Y495219D01*
Y404978D01*
X184829Y404606D01*
X185040Y404290D01*
X191593Y397737D01*
X191909Y397526D01*
X192281Y397452D01*
X231103D01*
X251225Y377331D01*
X251540Y377120D01*
X251913Y377046D01*
X260235D01*
X260237Y377037D01*
X260240Y377033D01*
X260241Y377028D01*
X260348Y376868D01*
X260455Y376705D01*
X260459Y376702D01*
X260461Y376698D01*
X260623Y376590D01*
X260783Y376480D01*
X260788Y376479D01*
X260792Y376477D01*
X260982Y376439D01*
X261173Y376399D01*
X261498Y376396D01*
X261601Y376392D01*
X261601Y376392D01*
X261601Y376392D01*
X261630Y376390D01*
X261654Y376394D01*
X261726Y376379D01*
X261729Y376380D01*
X261733Y376379D01*
X261865Y376405D01*
X261887Y376406D01*
X262033Y376345D01*
X262698D01*
X263313Y376600D01*
X263784Y377071D01*
X264039Y377686D01*
Y378351D01*
X263784Y378966D01*
X263313Y379437D01*
X262698Y379692D01*
X262033D01*
X261881Y379629D01*
X261733Y379658D01*
X261715Y379655D01*
X261696Y379658D01*
X261145Y379638D01*
X260970Y379596D01*
X260792Y379561D01*
X260776Y379550D01*
X260758Y379546D01*
X260612Y379440D01*
X260461Y379340D01*
X260451Y379324D01*
X260436Y379313D01*
X260341Y379159D01*
X260241Y379009D01*
X260237Y378992D01*
X252316D01*
X232194Y399113D01*
X231879Y399324D01*
X231506Y399398D01*
X192684D01*
X186701Y405381D01*
Y494815D01*
X191170Y499285D01*
X191177Y499283D01*
X191187Y499277D01*
X191371Y499240D01*
X191554Y499199D01*
X191566Y499201D01*
X191577Y499199D01*
X191761Y499236D01*
X191946Y499268D01*
X191956Y499274D01*
X191967Y499277D01*
X192123Y499381D01*
X192282Y499482D01*
X192459Y499651D01*
X192598Y499771D01*
X192677Y499831D01*
X192917Y499732D01*
X193896Y499604D01*
X195396D01*
X196375Y499732D01*
X197287Y500110D01*
X198070Y500711D01*
X198671Y501495D01*
X199049Y502407D01*
X199178Y503386D01*
X199049Y504365D01*
X198671Y505277D01*
X198070Y506060D01*
X197287Y506661D01*
X196375Y507039D01*
X195396Y507168D01*
D02*
G37*
G36*
X209683Y499409D02*
X209018D01*
X208403Y499155D01*
X207932Y498684D01*
X207870Y498534D01*
X207761Y498465D01*
X207754Y498455D01*
X207744Y498448D01*
X207640Y498293D01*
X207551Y498167D01*
X207508Y498127D01*
X207468Y498106D01*
X207016Y498015D01*
X206993Y498019D01*
X206933Y498078D01*
X206294D01*
X202357Y494141D01*
Y466844D01*
X201856Y466745D01*
X201714Y467090D01*
X201243Y467560D01*
X201104Y467618D01*
X201071Y467679D01*
X201034Y467709D01*
X201007Y467748D01*
X200881Y467833D01*
X200762Y467929D01*
X200716Y467943D01*
X200677Y467970D01*
X200621Y467981D01*
X200517Y468071D01*
X200468Y468118D01*
X200307Y468223D01*
X200146Y468330D01*
X200140Y468331D01*
X200135Y468335D01*
X199945Y468370D01*
X199756Y468408D01*
X199750Y468406D01*
X199744Y468408D01*
X199555Y468368D01*
X199366Y468330D01*
X199361Y468327D01*
X199354Y468325D01*
X199348Y468321D01*
X198352Y469317D01*
X198070Y469506D01*
X197736Y469572D01*
X197294D01*
X197194Y470072D01*
X197287Y470110D01*
X198070Y470711D01*
X198671Y471495D01*
X199049Y472407D01*
X199178Y473386D01*
X199049Y474365D01*
X198671Y475277D01*
X198070Y476060D01*
X197287Y476661D01*
X196375Y477039D01*
X195396Y477168D01*
X193896D01*
X192917Y477039D01*
X192005Y476661D01*
X191221Y476060D01*
X190620Y475277D01*
X190347Y474619D01*
X189847Y474718D01*
Y488106D01*
X191223Y489481D01*
X191232Y489479D01*
X191241Y489473D01*
X191425Y489436D01*
X191608Y489395D01*
X191620Y489397D01*
X191631Y489395D01*
X191815Y489432D01*
X192000Y489464D01*
X192010Y489470D01*
X192022Y489473D01*
X192178Y489577D01*
X192336Y489677D01*
X192475Y489811D01*
X192557Y489881D01*
X192917Y489732D01*
X193896Y489604D01*
X195396D01*
X196375Y489732D01*
X197287Y490110D01*
X198070Y490711D01*
X198671Y491495D01*
X199049Y492407D01*
X199178Y493386D01*
X199049Y494365D01*
X198671Y495277D01*
X198070Y496060D01*
X197287Y496661D01*
X196375Y497039D01*
X195396Y497168D01*
X193896D01*
X192917Y497039D01*
X192005Y496661D01*
X191221Y496060D01*
X190620Y495277D01*
X190242Y494365D01*
X190113Y493386D01*
X190242Y492407D01*
X190391Y492048D01*
X190320Y491965D01*
X190187Y491826D01*
X190087Y491668D01*
X189982Y491512D01*
X189980Y491500D01*
X189974Y491490D01*
X189941Y491306D01*
X189905Y491122D01*
X189907Y491110D01*
X189905Y491099D01*
X189946Y490915D01*
X189982Y490731D01*
X189989Y490722D01*
X189991Y490713D01*
X188361Y489082D01*
X188172Y488800D01*
X188105Y488467D01*
Y471872D01*
X188172Y471538D01*
X188361Y471256D01*
X191531Y468085D01*
X191814Y467896D01*
X192147Y467830D01*
X197375D01*
X198051Y467154D01*
X197971Y466670D01*
X197535Y466471D01*
X197287Y466661D01*
X196375Y467039D01*
X195396Y467168D01*
X193896D01*
X192917Y467039D01*
X192005Y466661D01*
X191221Y466060D01*
X190620Y465277D01*
X190242Y464365D01*
X190113Y463386D01*
X190242Y462407D01*
X190620Y461495D01*
X191221Y460711D01*
X192005Y460110D01*
X192917Y459732D01*
X193896Y459604D01*
X195396D01*
X196375Y459732D01*
X197287Y460110D01*
X198070Y460711D01*
X198671Y461495D01*
X199049Y462407D01*
X199178Y463386D01*
X199052Y464346D01*
X199105Y464414D01*
X199461Y464676D01*
X199962Y464468D01*
X200628D01*
X201243Y464723D01*
X201714Y465194D01*
X201856Y465539D01*
X202357Y465439D01*
Y461267D01*
X223715Y439909D01*
X224139D01*
X225517Y438531D01*
X227849D01*
Y441538D01*
X227849Y441538D01*
X227849D01*
X227769Y442038D01*
X227953Y442482D01*
Y443148D01*
X227698Y443763D01*
X227227Y444233D01*
X226612Y444488D01*
X225947D01*
X225332Y444233D01*
X224861Y443763D01*
X224704Y443384D01*
X224144Y443236D01*
X204899Y462481D01*
Y492342D01*
X208187Y495629D01*
X208190Y495628D01*
X208207Y495617D01*
X208383Y495582D01*
X208558Y495540D01*
X208578Y495543D01*
X208597Y495539D01*
X208773Y495574D01*
X208951Y495603D01*
X208968Y495613D01*
X208987Y495617D01*
X209137Y495717D01*
X209290Y495811D01*
X209310Y495829D01*
X209314Y495830D01*
X209366Y495831D01*
X209548Y495872D01*
X209732Y495908D01*
X209742Y495915D01*
X209754Y495918D01*
X209907Y496026D01*
X210063Y496130D01*
X210069Y496140D01*
X210080Y496147D01*
X210149Y496256D01*
X210298Y496318D01*
X210769Y496788D01*
X211024Y497403D01*
Y498069D01*
X210769Y498684D01*
X210298Y499155D01*
X209683Y499409D01*
D02*
G37*
G36*
X227006Y529429D02*
X226340D01*
X225725Y529174D01*
X225255Y528704D01*
X225000Y528089D01*
Y527423D01*
X225255Y526808D01*
X225725Y526337D01*
X226340Y526083D01*
X227006D01*
X227156Y526145D01*
X227281Y526117D01*
X227294Y526119D01*
X227306Y526116D01*
X227489Y526153D01*
X227674Y526185D01*
X227684Y526191D01*
X227696Y526194D01*
X227852Y526298D01*
X228009Y526398D01*
X228047Y526434D01*
X228050Y526436D01*
X228078Y526437D01*
X228252Y526479D01*
X228428Y526514D01*
X228445Y526525D01*
X228465Y526530D01*
X228610Y526635D01*
X228759Y526735D01*
X228823Y526767D01*
X229247Y526804D01*
X229380Y526763D01*
X259310Y496833D01*
X259309Y496829D01*
X259298Y496812D01*
X259263Y496636D01*
X259221Y496462D01*
X259224Y496442D01*
X259220Y496422D01*
X259255Y496246D01*
X259284Y496069D01*
X259294Y496052D01*
X259298Y496032D01*
X259398Y495883D01*
X259492Y495730D01*
X259511Y495709D01*
X259511Y495706D01*
X259512Y495654D01*
X259553Y495471D01*
X259590Y495288D01*
X259596Y495278D01*
X259599Y495265D01*
X259707Y495113D01*
X259811Y494957D01*
X259821Y494950D01*
X259828Y494940D01*
X259937Y494871D01*
X259999Y494722D01*
X260470Y494251D01*
X261085Y493996D01*
X261750D01*
X262365Y494251D01*
X262836Y494722D01*
X263090Y495336D01*
Y496002D01*
X262836Y496617D01*
X262365Y497088D01*
X262215Y497150D01*
X262146Y497259D01*
X262136Y497266D01*
X262129Y497276D01*
X261974Y497380D01*
X261821Y497487D01*
X261809Y497490D01*
X261799Y497497D01*
X261615Y497534D01*
X261433Y497574D01*
X261381Y497576D01*
X261377Y497576D01*
X261357Y497595D01*
X261204Y497689D01*
X261054Y497789D01*
X261035Y497792D01*
X261018Y497803D01*
X260840Y497831D01*
X260664Y497866D01*
X260645Y497862D01*
X260625Y497865D01*
X260450Y497824D01*
X260274Y497789D01*
X260257Y497777D01*
X260254Y497777D01*
X229802Y528228D01*
X229586Y528372D01*
X229331Y528423D01*
X228980Y528446D01*
X228880Y528595D01*
X228786Y528748D01*
X228770Y528760D01*
X228759Y528777D01*
X228610Y528877D01*
X228465Y528982D01*
X228445Y528987D01*
X228428Y528998D01*
X228252Y529033D01*
X228078Y529075D01*
X228050Y529076D01*
X228047Y529078D01*
X228009Y529114D01*
X227852Y529214D01*
X227696Y529318D01*
X227684Y529320D01*
X227674Y529327D01*
X227489Y529359D01*
X227306Y529396D01*
X227294Y529393D01*
X227282Y529395D01*
X227156Y529367D01*
X227006Y529429D01*
D02*
G37*
G36*
X285041Y496386D02*
X284251D01*
X283488Y496181D01*
X282804Y495786D01*
X282245Y495228D01*
X281850Y494544D01*
X281646Y493781D01*
Y492991D01*
X281850Y492228D01*
X282245Y491544D01*
X282804Y490985D01*
X283488Y490590D01*
X284251Y490386D01*
X285041D01*
X285804Y490590D01*
X286488Y490985D01*
X287046Y491544D01*
X287441Y492228D01*
X287646Y492991D01*
Y493781D01*
X287441Y494544D01*
X287046Y495228D01*
X286488Y495786D01*
X285804Y496181D01*
X285041Y496386D01*
D02*
G37*
G36*
X236947Y513484D02*
X236281D01*
X235666Y513230D01*
X235196Y512759D01*
X234941Y512144D01*
Y511478D01*
X235196Y510863D01*
X235666Y510393D01*
X235816Y510330D01*
X235885Y510222D01*
X235895Y510215D01*
X235902Y510204D01*
X236057Y510101D01*
X236210Y509993D01*
X236223Y509990D01*
X236233Y509983D01*
X236416Y509947D01*
X236599Y509906D01*
X236650Y509905D01*
X236654Y509904D01*
X236675Y509885D01*
X236828Y509792D01*
X236977Y509692D01*
X236997Y509688D01*
X237014Y509677D01*
X237191Y509649D01*
X237367Y509614D01*
X237387Y509618D01*
X237407Y509615D01*
X237581Y509657D01*
X237757Y509692D01*
X237774Y509703D01*
X237778Y509704D01*
X240622Y506860D01*
X240431Y506398D01*
X238612D01*
X237795Y505581D01*
Y504482D01*
X238734Y503543D01*
X241634D01*
X253150Y492028D01*
Y487894D01*
X252559Y487303D01*
X252067D01*
X251476Y486713D01*
Y485039D01*
X251772Y484744D01*
X253377D01*
X254306Y485673D01*
X254577Y485650D01*
X254852Y485512D01*
X254865Y485445D01*
X254872Y485435D01*
X254875Y485423D01*
X254982Y485270D01*
X255086Y485115D01*
X255097Y485108D01*
X255104Y485098D01*
X255212Y485029D01*
X255274Y484879D01*
X255745Y484408D01*
X256360Y484154D01*
X257026D01*
X257641Y484408D01*
X258111Y484879D01*
X258366Y485494D01*
Y486160D01*
X258111Y486775D01*
X257641Y487245D01*
X257491Y487307D01*
X257422Y487416D01*
X257412Y487423D01*
X257405Y487433D01*
X257250Y487537D01*
X257097Y487645D01*
X257084Y487648D01*
X257074Y487654D01*
X256891Y487691D01*
X256709Y487732D01*
X256657Y487733D01*
X256653Y487734D01*
X256632Y487752D01*
X256479Y487846D01*
X256330Y487946D01*
X256310Y487950D01*
X256293Y487960D01*
X256116Y487989D01*
X255940Y488024D01*
X255785Y488485D01*
Y493307D01*
X255734Y493562D01*
X255590Y493779D01*
X255590Y493779D01*
X238721Y510647D01*
X238722Y510651D01*
X238734Y510668D01*
X238769Y510844D01*
X238810Y511019D01*
X238807Y511038D01*
X238811Y511058D01*
X238776Y511234D01*
X238748Y511411D01*
X238737Y511428D01*
X238734Y511448D01*
X238634Y511597D01*
X238540Y511751D01*
X238521Y511771D01*
X238521Y511775D01*
X238519Y511827D01*
X238478Y512009D01*
X238442Y512192D01*
X238435Y512203D01*
X238432Y512215D01*
X238325Y512368D01*
X238221Y512523D01*
X238211Y512530D01*
X238203Y512540D01*
X238095Y512609D01*
X238033Y512759D01*
X237562Y513230D01*
X236947Y513484D01*
D02*
G37*
G36*
X195041Y486386D02*
X194251D01*
X193488Y486181D01*
X192804Y485786D01*
X192245Y485228D01*
X191850Y484544D01*
X191646Y483781D01*
Y482991D01*
X191850Y482228D01*
X192245Y481544D01*
X192804Y480985D01*
X193488Y480590D01*
X194251Y480386D01*
X195041D01*
X195804Y480590D01*
X196488Y480985D01*
X197046Y481544D01*
X197441Y482228D01*
X197646Y482991D01*
Y483781D01*
X197441Y484544D01*
X197046Y485228D01*
X196488Y485786D01*
X195804Y486181D01*
X195041Y486386D01*
D02*
G37*
G36*
X285396Y487168D02*
X283896D01*
X282917Y487039D01*
X282004Y486661D01*
X281221Y486060D01*
X280620Y485277D01*
X280242Y484365D01*
X280113Y483386D01*
X280242Y482407D01*
X280391Y482048D01*
X280320Y481965D01*
X280187Y481826D01*
X280087Y481668D01*
X279982Y481512D01*
X279980Y481500D01*
X279974Y481490D01*
X279941Y481306D01*
X279905Y481122D01*
X279907Y481110D01*
X279905Y481099D01*
X279946Y480915D01*
X279982Y480731D01*
X279989Y480722D01*
X279991Y480713D01*
X275702Y476424D01*
X275513Y476141D01*
X275447Y475808D01*
Y473234D01*
X231991Y429778D01*
X231979Y429781D01*
X231968Y429788D01*
X231785Y429825D01*
X231604Y429866D01*
X231448Y429870D01*
X231388Y429875D01*
X231338Y429909D01*
X231291Y429918D01*
X231249Y429941D01*
X231097Y429956D01*
X230948Y429986D01*
X230901Y429977D01*
X230854Y429982D01*
X230787Y429962D01*
X230648Y430020D01*
X229982D01*
X229367Y429765D01*
X228896Y429294D01*
X228642Y428679D01*
Y428014D01*
X228896Y427399D01*
X229367Y426928D01*
X229982Y426673D01*
X230648D01*
X230787Y426731D01*
X230854Y426711D01*
X230901Y426716D01*
X230948Y426707D01*
X231097Y426737D01*
X231249Y426752D01*
X231291Y426775D01*
X231338Y426784D01*
X231385Y426816D01*
X231522Y426826D01*
X231590Y426827D01*
X231779Y426867D01*
X231968Y426904D01*
X231973Y426908D01*
X231979Y426909D01*
X232138Y427018D01*
X232299Y427126D01*
X232302Y427131D01*
X232307Y427134D01*
X232413Y427296D01*
X232520Y427456D01*
X232521Y427462D01*
X232524Y427468D01*
X232560Y427657D01*
X232597Y427846D01*
Y427920D01*
X276934Y472257D01*
X276934Y472257D01*
X277122Y472540D01*
X277189Y472873D01*
X277189Y472873D01*
Y475447D01*
X281223Y479481D01*
X281232Y479479D01*
X281241Y479473D01*
X281425Y479436D01*
X281608Y479395D01*
X281620Y479397D01*
X281631Y479395D01*
X281816Y479432D01*
X282000Y479464D01*
X282010Y479470D01*
X282022Y479473D01*
X282178Y479577D01*
X282336Y479677D01*
X282475Y479811D01*
X282557Y479881D01*
X282917Y479732D01*
X283896Y479603D01*
X285396D01*
X286375Y479732D01*
X287287Y480110D01*
X288070Y480711D01*
X288671Y481495D01*
X289049Y482407D01*
X289178Y483386D01*
X289049Y484365D01*
X288671Y485277D01*
X288070Y486060D01*
X287287Y486661D01*
X286375Y487039D01*
X285396Y487168D01*
D02*
G37*
G36*
Y477168D02*
X283896D01*
X282917Y477039D01*
X282004Y476661D01*
X281221Y476060D01*
X280620Y475277D01*
X280242Y474365D01*
X280113Y473386D01*
X280242Y472407D01*
X280620Y471495D01*
X281221Y470711D01*
X282004Y470110D01*
X282917Y469732D01*
X283896Y469603D01*
X285396D01*
X286375Y469732D01*
X287287Y470110D01*
X288070Y470711D01*
X288671Y471495D01*
X289049Y472407D01*
X289178Y473386D01*
X289049Y474365D01*
X288671Y475277D01*
X288070Y476060D01*
X287287Y476661D01*
X286375Y477039D01*
X285396Y477168D01*
D02*
G37*
G36*
X285041Y466386D02*
X284251D01*
X283488Y466181D01*
X282804Y465786D01*
X282245Y465228D01*
X281850Y464544D01*
X281646Y463781D01*
Y462991D01*
X281850Y462228D01*
X282245Y461544D01*
X282804Y460985D01*
X283488Y460590D01*
X284251Y460386D01*
X285041D01*
X285804Y460590D01*
X286488Y460985D01*
X287046Y461544D01*
X287441Y462228D01*
X287646Y462991D01*
Y463781D01*
X287441Y464544D01*
X287046Y465228D01*
X286488Y465786D01*
X285804Y466181D01*
X285041Y466386D01*
D02*
G37*
G36*
X210335Y477201D02*
X209945Y477123D01*
X209614Y476902D01*
X206661Y473949D01*
X206440Y473619D01*
X206362Y473228D01*
Y470177D01*
X206440Y469787D01*
X206661Y469456D01*
X209909Y466208D01*
X210240Y465987D01*
X210630Y465909D01*
X225759D01*
X229594Y462074D01*
X229925Y461853D01*
X230315Y461776D01*
X237106D01*
X237496Y461853D01*
X237827Y462074D01*
X238808Y463055D01*
X241437D01*
X241827Y463133D01*
X242158Y463354D01*
X242555Y463751D01*
X242951D01*
X244689Y462012D01*
Y458309D01*
X243664Y457283D01*
X243368D01*
X242753Y457029D01*
X242282Y456558D01*
X242028Y455943D01*
Y455277D01*
X242282Y454662D01*
X242753Y454192D01*
X243368Y453937D01*
X244034D01*
X244649Y454192D01*
X245119Y454662D01*
X245374Y455277D01*
Y455665D01*
X246698Y456989D01*
X246954Y457371D01*
X247043Y457821D01*
Y462500D01*
X246954Y462950D01*
X246698Y463332D01*
X244271Y465760D01*
X243889Y466015D01*
X243438Y466105D01*
X243146D01*
Y467913D01*
X243068Y468304D01*
X242847Y468634D01*
X241469Y470012D01*
X241138Y470233D01*
X240748Y470311D01*
X230540D01*
X223949Y476902D01*
X223619Y477123D01*
X223228Y477201D01*
X210335Y477201D01*
D02*
G37*
G36*
X285041Y456386D02*
X284251D01*
X283488Y456181D01*
X282804Y455786D01*
X282245Y455228D01*
X281850Y454544D01*
X281646Y453781D01*
Y452991D01*
X281850Y452228D01*
X282245Y451544D01*
X282804Y450985D01*
X283488Y450590D01*
X284251Y450386D01*
X285041D01*
X285804Y450590D01*
X286488Y450985D01*
X287046Y451544D01*
X287441Y452228D01*
X287646Y452991D01*
Y453781D01*
X287441Y454544D01*
X287046Y455228D01*
X286488Y455786D01*
X285804Y456181D01*
X285041Y456386D01*
D02*
G37*
G36*
X195041D02*
X194251D01*
X193488Y456181D01*
X192804Y455786D01*
X192245Y455228D01*
X191850Y454544D01*
X191646Y453781D01*
Y452991D01*
X191850Y452228D01*
X192245Y451544D01*
X192804Y450985D01*
X193488Y450590D01*
X194251Y450386D01*
X195041D01*
X195804Y450590D01*
X196488Y450985D01*
X197046Y451544D01*
X197441Y452228D01*
X197646Y452991D01*
Y453781D01*
X197441Y454544D01*
X197046Y455228D01*
X196488Y455786D01*
X195804Y456181D01*
X195041Y456386D01*
D02*
G37*
G36*
X264106Y450760D02*
X263256D01*
X262470Y450434D01*
X261905Y449869D01*
X261480D01*
X260952Y449764D01*
X260504Y449465D01*
X250185Y439145D01*
X249575D01*
X248789Y438820D01*
X248188Y438219D01*
X247863Y437433D01*
Y436583D01*
X248188Y435797D01*
X248789Y435196D01*
X249575Y434870D01*
X250425D01*
X251211Y435196D01*
X251812Y435797D01*
X252137Y436583D01*
Y437192D01*
X254383Y439438D01*
X254807Y439155D01*
X254799Y439136D01*
Y438226D01*
X255147Y437385D01*
X255791Y436742D01*
X256632Y436394D01*
X257542D01*
X258097Y436624D01*
X258158Y436612D01*
X258291Y436638D01*
X258427Y436648D01*
X258485Y436677D01*
X258548Y436689D01*
X258609Y436730D01*
X258610Y436730D01*
X259057Y436760D01*
X259196Y436762D01*
X259386Y436801D01*
X259577Y436839D01*
X259581Y436842D01*
X259585Y436843D01*
X259746Y436952D01*
X259908Y437060D01*
X259910Y437064D01*
X259914Y437067D01*
X260020Y437229D01*
X260129Y437391D01*
X260129Y437395D01*
X260132Y437399D01*
X260133Y437402D01*
X302001D01*
X302199Y437442D01*
X302239Y437400D01*
X302332Y437358D01*
X302416Y437300D01*
X302513Y437279D01*
X302603Y437239D01*
X302705Y437236D01*
X302804Y437214D01*
X302902Y437231D01*
X303000Y437229D01*
X303096Y437266D01*
X303196Y437284D01*
X303279Y437337D01*
X303372Y437372D01*
X303446Y437443D01*
X303532Y437498D01*
X303651Y437612D01*
X303744Y437693D01*
X303823Y437755D01*
X303887Y437799D01*
X303931Y437824D01*
X303938Y437827D01*
X303943Y437827D01*
X303944Y437828D01*
X304035Y437835D01*
X304197Y437837D01*
X304232Y437852D01*
X304271Y437855D01*
X304414Y437929D01*
X304563Y437993D01*
X304583Y438014D01*
X304835D01*
X305768Y438400D01*
X306482Y439114D01*
X306868Y440047D01*
Y441056D01*
X306482Y441989D01*
X305768Y442702D01*
X304835Y443089D01*
X303826D01*
X302893Y442702D01*
X302180Y441989D01*
X302068Y441718D01*
X302063Y441714D01*
X302034Y441702D01*
X301916Y441582D01*
X301792Y441470D01*
X301778Y441441D01*
X301755Y441418D01*
X301692Y441262D01*
X301644Y441162D01*
X301638Y441152D01*
X301632Y441135D01*
X301620Y441111D01*
X301619Y441108D01*
X301547Y440995D01*
X301509Y440946D01*
X301225Y440623D01*
X301110Y440505D01*
X301064Y440435D01*
X301005Y440378D01*
X300957Y440270D01*
X300892Y440171D01*
X300877Y440090D01*
X300843Y440015D01*
X300842Y439960D01*
X285383D01*
X285317Y440460D01*
X285804Y440590D01*
X286488Y440985D01*
X287046Y441544D01*
X287441Y442228D01*
X287646Y442991D01*
Y443781D01*
X287441Y444544D01*
X287046Y445228D01*
X286488Y445786D01*
X285804Y446181D01*
X285041Y446386D01*
X284251D01*
X283488Y446181D01*
X282804Y445786D01*
X282245Y445228D01*
X281850Y444544D01*
X281646Y443781D01*
Y442991D01*
X281850Y442228D01*
X282245Y441544D01*
X282804Y440985D01*
X283488Y440590D01*
X283974Y440460D01*
X283908Y439960D01*
X260133D01*
X260132Y439963D01*
X260129Y439967D01*
X260129Y439971D01*
X260020Y440133D01*
X259914Y440296D01*
X259910Y440298D01*
X259908Y440302D01*
X259746Y440410D01*
X259585Y440520D01*
X259581Y440520D01*
X259577Y440523D01*
X259386Y440561D01*
X259196Y440601D01*
X259043Y440602D01*
X258796Y440612D01*
X258627Y440629D01*
X258609Y440632D01*
X258548Y440673D01*
X258485Y440686D01*
X258427Y440715D01*
X258291Y440724D01*
X258158Y440751D01*
X258097Y440738D01*
X257542Y440969D01*
X256632D01*
X256613Y440961D01*
X256329Y441385D01*
X262052Y447107D01*
X262173D01*
X262470Y446810D01*
X263256Y446485D01*
X264106D01*
X264892Y446810D01*
X265493Y447411D01*
X265819Y448197D01*
Y449047D01*
X265493Y449833D01*
X264892Y450434D01*
X264106Y450760D01*
D02*
G37*
G36*
X195041Y446386D02*
X194251D01*
X193488Y446181D01*
X192804Y445786D01*
X192245Y445228D01*
X191850Y444544D01*
X191646Y443781D01*
Y442991D01*
X191850Y442228D01*
X192245Y441544D01*
X192804Y440985D01*
X193488Y440590D01*
X194251Y440386D01*
X195041D01*
X195804Y440590D01*
X196488Y440985D01*
X197046Y441544D01*
X197441Y442228D01*
X197646Y442991D01*
Y443781D01*
X197441Y444544D01*
X197046Y445228D01*
X196488Y445786D01*
X195804Y446181D01*
X195041Y446386D01*
D02*
G37*
G36*
X269717Y431665D02*
X268866D01*
X268081Y431340D01*
X267479Y430738D01*
X267452Y430673D01*
X267255Y430660D01*
X267130Y430660D01*
X267064Y430646D01*
X266997Y430650D01*
X266871Y430607D01*
X266740Y430580D01*
X266684Y430542D01*
X266621Y430520D01*
X266521Y430431D01*
X266411Y430357D01*
X266374Y430300D01*
X266323Y430256D01*
X266265Y430136D01*
X266192Y430025D01*
X266191Y430019D01*
X249218D01*
X249216Y430028D01*
X249215Y430029D01*
X249215Y430030D01*
X249105Y430194D01*
X248996Y430359D01*
X248995Y430360D01*
X248994Y430361D01*
X248830Y430471D01*
X248666Y430581D01*
X248664Y430581D01*
X248663Y430582D01*
X248471Y430620D01*
X248276Y430660D01*
X248132Y430660D01*
X247707Y430670D01*
X247628Y430676D01*
X247614Y430678D01*
X247607Y430678D01*
X247594Y430679D01*
X247588Y430678D01*
X247509Y430701D01*
X247464Y430696D01*
X247421Y430705D01*
X247339Y430688D01*
X246882Y430878D01*
X246031D01*
X245246Y430552D01*
X244645Y429951D01*
X244319Y429165D01*
Y428315D01*
X244645Y427529D01*
X245246Y426928D01*
X246031Y426603D01*
X246882D01*
X247339Y426792D01*
X247421Y426776D01*
X247448Y426781D01*
X247475Y426777D01*
X248327Y426822D01*
X248494Y426864D01*
X248663Y426898D01*
X248686Y426913D01*
X248712Y426920D01*
X248850Y427023D01*
X248994Y427119D01*
X249009Y427142D01*
X249031Y427158D01*
X249119Y427307D01*
X249215Y427450D01*
X249217Y427461D01*
X266458D01*
X266505Y427325D01*
X266540Y427286D01*
X266562Y427238D01*
X266671Y427138D01*
X266769Y427027D01*
X266816Y427004D01*
X266855Y426969D01*
X266994Y426918D01*
X267127Y426854D01*
X267179Y426851D01*
X267228Y426833D01*
X267376Y426839D01*
X267524Y426830D01*
X267573Y426847D01*
X267626Y426849D01*
X269192Y427230D01*
X269350Y427304D01*
X269512Y427369D01*
X269530Y427387D01*
X269536Y427390D01*
X269717D01*
X270502Y427716D01*
X271103Y428317D01*
X271429Y429102D01*
Y429953D01*
X271103Y430738D01*
X270502Y431340D01*
X269717Y431665D01*
D02*
G37*
G36*
X285041Y436386D02*
X284251D01*
X283488Y436181D01*
X282804Y435786D01*
X282245Y435228D01*
X281850Y434544D01*
X281646Y433781D01*
Y432991D01*
X281850Y432228D01*
X282245Y431544D01*
X282804Y430985D01*
X283488Y430590D01*
X284251Y430386D01*
X285041D01*
X285804Y430590D01*
X286488Y430985D01*
X287046Y431544D01*
X287441Y432228D01*
X287646Y432991D01*
Y433781D01*
X287441Y434544D01*
X287046Y435228D01*
X286488Y435786D01*
X285804Y436181D01*
X285041Y436386D01*
D02*
G37*
G36*
X195041D02*
X194251D01*
X193488Y436181D01*
X192804Y435786D01*
X192245Y435228D01*
X191850Y434544D01*
X191646Y433781D01*
Y432991D01*
X191850Y432228D01*
X192245Y431544D01*
X192804Y430985D01*
X193488Y430590D01*
X194251Y430386D01*
X195041D01*
X195804Y430590D01*
X196488Y430985D01*
X197046Y431544D01*
X197441Y432228D01*
X197646Y432991D01*
Y433781D01*
X197441Y434544D01*
X197046Y435228D01*
X196488Y435786D01*
X195804Y436181D01*
X195041Y436386D01*
D02*
G37*
G36*
X285041Y426386D02*
X284251D01*
X283488Y426181D01*
X282804Y425786D01*
X282245Y425228D01*
X281850Y424544D01*
X281646Y423781D01*
Y422991D01*
X281850Y422228D01*
X282245Y421544D01*
X282804Y420985D01*
X283488Y420590D01*
X284251Y420386D01*
X285041D01*
X285804Y420590D01*
X286488Y420985D01*
X287046Y421544D01*
X287441Y422228D01*
X287646Y422991D01*
Y423781D01*
X287441Y424544D01*
X287046Y425228D01*
X286488Y425786D01*
X285804Y426181D01*
X285041Y426386D01*
D02*
G37*
G36*
X195041D02*
X194251D01*
X193488Y426181D01*
X192804Y425786D01*
X192245Y425228D01*
X191850Y424544D01*
X191646Y423781D01*
Y422991D01*
X191850Y422228D01*
X192245Y421544D01*
X192804Y420985D01*
X193488Y420590D01*
X194251Y420386D01*
X195041D01*
X195804Y420590D01*
X196488Y420985D01*
X197046Y421544D01*
X197441Y422228D01*
X197646Y422991D01*
Y423781D01*
X197441Y424544D01*
X197046Y425228D01*
X196488Y425786D01*
X195804Y426181D01*
X195041Y426386D01*
D02*
G37*
G36*
X285041Y416386D02*
X284251D01*
X283488Y416181D01*
X282804Y415786D01*
X282245Y415228D01*
X281850Y414544D01*
X281646Y413781D01*
Y412991D01*
X281850Y412228D01*
X282245Y411544D01*
X282804Y410985D01*
X283488Y410590D01*
X284251Y410386D01*
X285041D01*
X285804Y410590D01*
X286488Y410985D01*
X287046Y411544D01*
X287441Y412228D01*
X287646Y412991D01*
Y413781D01*
X287441Y414544D01*
X287046Y415228D01*
X286488Y415786D01*
X285804Y416181D01*
X285041Y416386D01*
D02*
G37*
G36*
X195041D02*
X194251D01*
X193488Y416181D01*
X192804Y415786D01*
X192245Y415228D01*
X191850Y414544D01*
X191646Y413781D01*
Y412991D01*
X191850Y412228D01*
X192245Y411544D01*
X192804Y410985D01*
X193488Y410590D01*
X194251Y410386D01*
X195041D01*
X195804Y410590D01*
X196488Y410985D01*
X197046Y411544D01*
X197441Y412228D01*
X197646Y412991D01*
Y413781D01*
X197441Y414544D01*
X197046Y415228D01*
X196488Y415786D01*
X195804Y416181D01*
X195041Y416386D01*
D02*
G37*
G36*
X285041Y406386D02*
X284251D01*
X283488Y406181D01*
X282804Y405786D01*
X282245Y405228D01*
X281850Y404544D01*
X281646Y403781D01*
Y402991D01*
X281850Y402228D01*
X282245Y401544D01*
X282804Y400985D01*
X283488Y400590D01*
X284251Y400386D01*
X285041D01*
X285804Y400590D01*
X286488Y400985D01*
X287046Y401544D01*
X287441Y402228D01*
X287646Y402991D01*
Y403781D01*
X287441Y404544D01*
X287046Y405228D01*
X286488Y405786D01*
X285804Y406181D01*
X285041Y406386D01*
D02*
G37*
G36*
X195041D02*
X194251D01*
X193488Y406181D01*
X192804Y405786D01*
X192245Y405228D01*
X191850Y404544D01*
X191646Y403781D01*
Y402991D01*
X191850Y402228D01*
X192245Y401544D01*
X192804Y400985D01*
X193488Y400590D01*
X194251Y400386D01*
X195041D01*
X195804Y400590D01*
X196488Y400985D01*
X197046Y401544D01*
X197441Y402228D01*
X197646Y402991D01*
Y403781D01*
X197441Y404544D01*
X197046Y405228D01*
X196488Y405786D01*
X195804Y406181D01*
X195041Y406386D01*
D02*
G37*
G36*
X331000Y534020D02*
X326000D01*
X325610Y533942D01*
X325279Y533721D01*
X321279Y529721D01*
X321058Y529390D01*
X320980Y529000D01*
Y440209D01*
X321058Y439819D01*
X321279Y439488D01*
X321420Y439347D01*
X321520Y439106D01*
Y438846D01*
X321420Y438606D01*
X321279Y438465D01*
X321058Y438134D01*
X320980Y437744D01*
Y400422D01*
X312578Y392020D01*
X287864D01*
X287519Y392520D01*
X287646Y392991D01*
Y393781D01*
X287441Y394544D01*
X287046Y395228D01*
X286488Y395786D01*
X285804Y396181D01*
X285041Y396386D01*
X284251D01*
X283488Y396181D01*
X282804Y395786D01*
X282245Y395228D01*
X281850Y394544D01*
X281646Y393781D01*
Y392991D01*
X281772Y392520D01*
X281428Y392020D01*
X260000D01*
X259610Y391942D01*
X259279Y391721D01*
X257279Y389721D01*
X257058Y389390D01*
X256980Y389000D01*
Y386000D01*
X257058Y385610D01*
X257279Y385279D01*
X260279Y382279D01*
X260610Y382058D01*
X261000Y381980D01*
X281646D01*
X281957Y382042D01*
X282245Y381544D01*
X282804Y380985D01*
X283488Y380590D01*
X284251Y380386D01*
X285041D01*
X285804Y380590D01*
X286488Y380985D01*
X287046Y381544D01*
X287334Y382042D01*
X287646Y381980D01*
X320000D01*
X320390Y382058D01*
X320721Y382279D01*
X328721Y390279D01*
X328942Y390610D01*
X329020Y391000D01*
Y521578D01*
X332721Y525279D01*
X332942Y525610D01*
X333020Y526000D01*
Y532000D01*
X332942Y532390D01*
X332721Y532721D01*
X331721Y533721D01*
X331390Y533942D01*
X331000Y534020D01*
D02*
G37*
G36*
X195041Y396386D02*
X194251D01*
X193488Y396181D01*
X192804Y395786D01*
X192245Y395228D01*
X191850Y394544D01*
X191646Y393781D01*
Y392991D01*
X191850Y392228D01*
X192245Y391544D01*
X192804Y390985D01*
X193488Y390590D01*
X194251Y390386D01*
X195041D01*
X195804Y390590D01*
X196488Y390985D01*
X197046Y391544D01*
X197441Y392228D01*
X197646Y392991D01*
Y393781D01*
X197441Y394544D01*
X197046Y395228D01*
X196488Y395786D01*
X195804Y396181D01*
X195041Y396386D01*
D02*
G37*
G36*
X285041Y376386D02*
X284251D01*
X283488Y376181D01*
X282804Y375786D01*
X282245Y375228D01*
X281850Y374544D01*
X281646Y373781D01*
Y372991D01*
X281850Y372228D01*
X282245Y371544D01*
X282804Y370985D01*
X283488Y370590D01*
X284251Y370386D01*
X285041D01*
X285804Y370590D01*
X286488Y370985D01*
X287046Y371544D01*
X287441Y372228D01*
X287646Y372991D01*
Y373781D01*
X287441Y374544D01*
X287046Y375228D01*
X286488Y375786D01*
X285804Y376181D01*
X285041Y376386D01*
D02*
G37*
G36*
Y366386D02*
X284251D01*
X283488Y366181D01*
X282804Y365786D01*
X282245Y365228D01*
X281850Y364544D01*
X281646Y363781D01*
Y362991D01*
X281850Y362228D01*
X282245Y361544D01*
X282804Y360985D01*
X283488Y360590D01*
X284251Y360386D01*
X285041D01*
X285804Y360590D01*
X286488Y360985D01*
X287046Y361544D01*
X287441Y362228D01*
X287646Y362991D01*
Y363781D01*
X287441Y364544D01*
X287046Y365228D01*
X286488Y365786D01*
X285804Y366181D01*
X285041Y366386D01*
D02*
G37*
G36*
X195396Y387168D02*
X193896D01*
X192917Y387039D01*
X192005Y386662D01*
X191221Y386060D01*
X190620Y385277D01*
X190242Y384365D01*
X190113Y383386D01*
X190242Y382407D01*
X190620Y381495D01*
X191221Y380711D01*
X192005Y380110D01*
X192917Y379732D01*
X193896Y379604D01*
X195396D01*
X196375Y379732D01*
X196610Y379830D01*
X196844Y379641D01*
X197009Y379482D01*
X197168Y379381D01*
X197324Y379277D01*
X197335Y379274D01*
X197345Y379268D01*
X197530Y379236D01*
X197714Y379199D01*
X197725Y379201D01*
X197737Y379199D01*
X197920Y379240D01*
X198105Y379277D01*
X198114Y379283D01*
X198121Y379285D01*
X209688Y367718D01*
X210004Y367507D01*
X210376Y367432D01*
X288081D01*
X300466Y355047D01*
X300455Y355030D01*
X300445Y354978D01*
X300420Y354930D01*
X300407Y354784D01*
X300378Y354640D01*
X300389Y354587D01*
X300384Y354534D01*
X300428Y354394D01*
X300457Y354250D01*
X300487Y354205D01*
X300503Y354154D01*
X300598Y354042D01*
X300679Y353920D01*
X301055Y353547D01*
X301088Y353525D01*
X301112Y353495D01*
X301217Y353435D01*
X301239Y353383D01*
X301710Y352912D01*
X302325Y352658D01*
X302990D01*
X303605Y352912D01*
X304076Y353383D01*
X304331Y353998D01*
Y354663D01*
X304076Y355278D01*
X303605Y355749D01*
X303348Y355856D01*
X303334Y355870D01*
X303241Y355988D01*
X303214Y356004D01*
X303168Y356043D01*
X303164Y356048D01*
X303162Y356049D01*
X302922Y356259D01*
X302873Y356307D01*
X302829Y356336D01*
X302795Y356377D01*
X302664Y356446D01*
X302542Y356527D01*
X302489Y356537D01*
X302442Y356562D01*
X302295Y356575D01*
X302151Y356603D01*
X302099Y356592D01*
X302046Y356597D01*
X301905Y356553D01*
X301761Y356524D01*
X301750Y356516D01*
X289172Y369093D01*
X288857Y369304D01*
X288484Y369378D01*
X210779D01*
X199497Y380661D01*
X199499Y380667D01*
X199505Y380677D01*
X199542Y380861D01*
X199582Y381045D01*
X199580Y381056D01*
X199583Y381067D01*
X199546Y381251D01*
X199513Y381436D01*
X199507Y381446D01*
X199505Y381457D01*
X199400Y381613D01*
X199300Y381772D01*
X199130Y381949D01*
X199010Y382088D01*
X198950Y382168D01*
X199049Y382407D01*
X199178Y383386D01*
X199049Y384365D01*
X198671Y385277D01*
X198070Y386060D01*
X197287Y386662D01*
X196375Y387039D01*
X195396Y387168D01*
D02*
G37*
G36*
X285041Y356386D02*
X284251D01*
X283488Y356181D01*
X282804Y355786D01*
X282245Y355228D01*
X281850Y354544D01*
X281646Y353781D01*
Y352991D01*
X281850Y352228D01*
X282245Y351544D01*
X282804Y350985D01*
X283488Y350590D01*
X284251Y350386D01*
X285041D01*
X285804Y350590D01*
X286488Y350985D01*
X287046Y351544D01*
X287441Y352228D01*
X287646Y352991D01*
Y353781D01*
X287441Y354544D01*
X287046Y355228D01*
X286488Y355786D01*
X285804Y356181D01*
X285041Y356386D01*
D02*
G37*
G36*
X195396Y377168D02*
X193896D01*
X192917Y377039D01*
X192005Y376661D01*
X191221Y376060D01*
X190620Y375277D01*
X190242Y374365D01*
X190113Y373386D01*
X190242Y372407D01*
X190620Y371495D01*
X191221Y370711D01*
X192005Y370110D01*
X192917Y369732D01*
X193896Y369603D01*
X195396D01*
X196375Y369732D01*
X196610Y369830D01*
X196844Y369641D01*
X197009Y369482D01*
X197168Y369381D01*
X197324Y369277D01*
X197335Y369274D01*
X197345Y369268D01*
X197530Y369236D01*
X197714Y369199D01*
X197725Y369201D01*
X197737Y369199D01*
X197920Y369240D01*
X198105Y369277D01*
X198114Y369283D01*
X198121Y369285D01*
X209432Y357973D01*
X209748Y357763D01*
X210120Y357688D01*
X287327D01*
X297511Y347504D01*
X297510Y347503D01*
X297470Y347318D01*
X297427Y347134D01*
X297428Y347124D01*
X297426Y347114D01*
X297460Y346928D01*
X297490Y346741D01*
X297496Y346733D01*
X297497Y346723D01*
X297600Y346564D01*
X297699Y346403D01*
X297708Y346397D01*
X297713Y346388D01*
X297975Y346117D01*
X298017Y346070D01*
X298021Y346066D01*
X298047Y346021D01*
X298066Y346006D01*
X298080Y345984D01*
X298183Y345911D01*
X298215Y345878D01*
X298286Y345706D01*
X298757Y345235D01*
X299372Y344980D01*
X300038D01*
X300653Y345235D01*
X301123Y345706D01*
X301378Y346321D01*
Y346986D01*
X301123Y347601D01*
X300653Y348072D01*
X300535Y348121D01*
X300459Y348241D01*
X300438Y348256D01*
X300423Y348277D01*
X300028Y348653D01*
X299886Y348744D01*
X299749Y348843D01*
X299718Y348850D01*
X299692Y348866D01*
X299526Y348895D01*
X299362Y348934D01*
X299331Y348929D01*
X299300Y348935D01*
X299136Y348898D01*
X298969Y348871D01*
X298942Y348854D01*
X298919Y348849D01*
X288418Y359349D01*
X288102Y359560D01*
X287730Y359634D01*
X210523D01*
X199497Y370660D01*
X199499Y370667D01*
X199505Y370677D01*
X199542Y370861D01*
X199582Y371045D01*
X199580Y371056D01*
X199583Y371067D01*
X199546Y371251D01*
X199513Y371437D01*
X199507Y371446D01*
X199505Y371457D01*
X199400Y371614D01*
X199300Y371772D01*
X199130Y371949D01*
X199010Y372088D01*
X198950Y372168D01*
X199049Y372407D01*
X199178Y373386D01*
X199049Y374365D01*
X198671Y375277D01*
X198070Y376060D01*
X197287Y376661D01*
X196375Y377039D01*
X195396Y377168D01*
D02*
G37*
G36*
X285041Y346386D02*
X284251D01*
X283488Y346181D01*
X282804Y345786D01*
X282245Y345228D01*
X281850Y344544D01*
X281646Y343781D01*
Y342991D01*
X281850Y342228D01*
X282245Y341544D01*
X282804Y340985D01*
X283488Y340590D01*
X284251Y340386D01*
X285041D01*
X285804Y340590D01*
X286488Y340985D01*
X287046Y341544D01*
X287441Y342228D01*
X287646Y342991D01*
Y343781D01*
X287441Y344544D01*
X287046Y345228D01*
X286488Y345786D01*
X285804Y346181D01*
X285041Y346386D01*
D02*
G37*
G36*
X195396Y367168D02*
X193896D01*
X192917Y367039D01*
X192005Y366662D01*
X191221Y366060D01*
X190620Y365277D01*
X190242Y364365D01*
X190113Y363386D01*
X190242Y362407D01*
X190620Y361495D01*
X191221Y360711D01*
X192005Y360110D01*
X192917Y359732D01*
X193896Y359604D01*
X195396D01*
X196375Y359732D01*
X196610Y359830D01*
X196844Y359641D01*
X197009Y359482D01*
X197168Y359381D01*
X197324Y359277D01*
X197335Y359274D01*
X197345Y359268D01*
X197530Y359236D01*
X197714Y359199D01*
X197725Y359201D01*
X197737Y359199D01*
X197920Y359240D01*
X198105Y359277D01*
X198114Y359283D01*
X198121Y359284D01*
X209668Y347737D01*
X209984Y347526D01*
X210356Y347452D01*
X289262D01*
X297215Y339499D01*
X297210Y339493D01*
X297209Y339488D01*
X297207Y339484D01*
X297169Y339294D01*
X297129Y339103D01*
X297130Y339098D01*
X297129Y339093D01*
X297167Y338903D01*
X297203Y338712D01*
X297206Y338708D01*
X297207Y338703D01*
X297315Y338542D01*
X297421Y338379D01*
X297649Y338147D01*
X297718Y338071D01*
X297718Y338071D01*
X297718Y338071D01*
X297738Y338050D01*
X297758Y338035D01*
X297798Y337973D01*
X297801Y337972D01*
X297803Y337969D01*
X297914Y337895D01*
X297931Y337879D01*
X297991Y337733D01*
X298462Y337263D01*
X299077Y337008D01*
X299742D01*
X300357Y337263D01*
X300828Y337733D01*
X301083Y338348D01*
Y339014D01*
X300828Y339629D01*
X300357Y340100D01*
X300205Y340162D01*
X300121Y340288D01*
X300106Y340298D01*
X300095Y340314D01*
X299691Y340689D01*
X299537Y340784D01*
X299387Y340884D01*
X299369Y340888D01*
X299353Y340898D01*
X299174Y340926D01*
X298997Y340962D01*
X298978Y340958D01*
X298960Y340961D01*
X298784Y340919D01*
X298607Y340884D01*
X298592Y340874D01*
X290353Y349113D01*
X290038Y349324D01*
X289665Y349398D01*
X210759D01*
X199497Y360661D01*
X199499Y360667D01*
X199505Y360677D01*
X199542Y360861D01*
X199582Y361045D01*
X199580Y361056D01*
X199583Y361067D01*
X199546Y361251D01*
X199513Y361437D01*
X199507Y361446D01*
X199505Y361457D01*
X199400Y361613D01*
X199300Y361772D01*
X199130Y361949D01*
X199010Y362088D01*
X198950Y362168D01*
X199049Y362407D01*
X199178Y363386D01*
X199049Y364365D01*
X198671Y365277D01*
X198070Y366060D01*
X197287Y366662D01*
X196375Y367039D01*
X195396Y367168D01*
D02*
G37*
G36*
X285041Y336386D02*
X284251D01*
X283488Y336181D01*
X282804Y335786D01*
X282245Y335228D01*
X281850Y334544D01*
X281646Y333781D01*
Y332991D01*
X281850Y332228D01*
X282245Y331544D01*
X282804Y330985D01*
X283488Y330590D01*
X284251Y330386D01*
X285041D01*
X285804Y330590D01*
X286488Y330985D01*
X287046Y331544D01*
X287441Y332228D01*
X287646Y332991D01*
Y333781D01*
X287441Y334544D01*
X287046Y335228D01*
X286488Y335786D01*
X285804Y336181D01*
X285041Y336386D01*
D02*
G37*
G36*
X195396Y357168D02*
X193896D01*
X192917Y357039D01*
X192005Y356662D01*
X191221Y356060D01*
X190620Y355277D01*
X190242Y354365D01*
X190113Y353386D01*
X190242Y352407D01*
X190620Y351495D01*
X191221Y350711D01*
X192005Y350110D01*
X192917Y349732D01*
X193896Y349604D01*
X195396D01*
X196375Y349732D01*
X196610Y349830D01*
X196844Y349641D01*
X197009Y349482D01*
X197168Y349381D01*
X197324Y349277D01*
X197335Y349274D01*
X197345Y349268D01*
X197530Y349236D01*
X197714Y349199D01*
X197725Y349201D01*
X197737Y349199D01*
X197920Y349240D01*
X198105Y349277D01*
X198114Y349283D01*
X198121Y349285D01*
X209806Y337599D01*
X210122Y337388D01*
X210494Y337314D01*
X291329D01*
X297018Y331626D01*
X297013Y331618D01*
X297012Y331614D01*
X297010Y331610D01*
X296972Y331419D01*
X296932Y331229D01*
X296933Y331224D01*
X296932Y331219D01*
X296970Y331029D01*
X297006Y330838D01*
X297009Y330834D01*
X297010Y330829D01*
X297118Y330668D01*
X297224Y330505D01*
X297452Y330273D01*
X297521Y330197D01*
X297521Y330197D01*
X297521Y330197D01*
X297541Y330176D01*
X297561Y330161D01*
X297601Y330100D01*
X297604Y330098D01*
X297606Y330095D01*
X297717Y330020D01*
X297734Y330005D01*
X297794Y329859D01*
X298265Y329389D01*
X298880Y329134D01*
X299545D01*
X300160Y329389D01*
X300631Y329859D01*
X300886Y330474D01*
Y331140D01*
X300631Y331755D01*
X300160Y332226D01*
X300008Y332289D01*
X299925Y332414D01*
X299909Y332424D01*
X299898Y332440D01*
X299494Y332815D01*
X299341Y332910D01*
X299190Y333010D01*
X299172Y333014D01*
X299156Y333024D01*
X298977Y333052D01*
X298800Y333088D01*
X298782Y333084D01*
X298763Y333087D01*
X298587Y333045D01*
X298410Y333010D01*
X298395Y333000D01*
X292420Y338975D01*
X292105Y339186D01*
X291732Y339260D01*
X210897D01*
X199497Y350660D01*
X199499Y350667D01*
X199505Y350677D01*
X199542Y350861D01*
X199582Y351045D01*
X199580Y351056D01*
X199583Y351067D01*
X199546Y351251D01*
X199513Y351436D01*
X199507Y351446D01*
X199505Y351457D01*
X199400Y351613D01*
X199300Y351772D01*
X199130Y351949D01*
X199010Y352088D01*
X198950Y352168D01*
X199049Y352407D01*
X199178Y353386D01*
X199049Y354365D01*
X198671Y355277D01*
X198070Y356060D01*
X197287Y356662D01*
X196375Y357039D01*
X195396Y357168D01*
D02*
G37*
G36*
Y347168D02*
X193896D01*
X192917Y347039D01*
X192005Y346661D01*
X191221Y346060D01*
X190620Y345277D01*
X190242Y344365D01*
X190113Y343386D01*
X190242Y342407D01*
X190620Y341495D01*
X191221Y340711D01*
X192005Y340110D01*
X192917Y339732D01*
X193896Y339603D01*
X195396D01*
X196375Y339732D01*
X196610Y339830D01*
X196844Y339641D01*
X197009Y339482D01*
X197168Y339381D01*
X197324Y339277D01*
X197335Y339274D01*
X197345Y339268D01*
X197530Y339236D01*
X197714Y339199D01*
X197725Y339201D01*
X197737Y339199D01*
X197920Y339240D01*
X198105Y339277D01*
X198114Y339283D01*
X198121Y339284D01*
X209353Y328052D01*
X209669Y327841D01*
X210041Y327767D01*
X293003D01*
X297117Y323653D01*
X297112Y323646D01*
X297111Y323641D01*
X297108Y323637D01*
X297070Y323447D01*
X297031Y323257D01*
X297031Y323252D01*
X297030Y323247D01*
X297068Y323057D01*
X297105Y322866D01*
X297107Y322862D01*
X297108Y322857D01*
X297216Y322695D01*
X297322Y322533D01*
X297550Y322301D01*
X297620Y322225D01*
X297620Y322225D01*
X297620Y322225D01*
X297639Y322203D01*
X297659Y322189D01*
X297700Y322127D01*
X297703Y322125D01*
X297704Y322123D01*
X297816Y322048D01*
X297832Y322032D01*
X297892Y321887D01*
X298363Y321416D01*
X298978Y321161D01*
X299644D01*
X300259Y321416D01*
X300729Y321887D01*
X300984Y322502D01*
Y323167D01*
X300729Y323782D01*
X300259Y324253D01*
X300107Y324316D01*
X300023Y324441D01*
X300007Y324452D01*
X299996Y324467D01*
X299593Y324842D01*
X299439Y324937D01*
X299289Y325038D01*
X299270Y325041D01*
X299254Y325051D01*
X299076Y325080D01*
X298899Y325115D01*
X298880Y325112D01*
X298862Y325114D01*
X298686Y325073D01*
X298509Y325038D01*
X298494Y325028D01*
X294093Y329428D01*
X293778Y329639D01*
X293406Y329713D01*
X210444D01*
X199497Y340661D01*
X199499Y340667D01*
X199505Y340677D01*
X199542Y340861D01*
X199582Y341045D01*
X199580Y341056D01*
X199583Y341067D01*
X199546Y341251D01*
X199513Y341437D01*
X199507Y341446D01*
X199505Y341457D01*
X199400Y341614D01*
X199300Y341772D01*
X199130Y341949D01*
X199010Y342088D01*
X198950Y342168D01*
X199049Y342407D01*
X199178Y343386D01*
X199049Y344365D01*
X198671Y345277D01*
X198070Y346060D01*
X197287Y346661D01*
X196375Y347039D01*
X195396Y347168D01*
D02*
G37*
G36*
X285041Y326386D02*
X284251D01*
X283488Y326181D01*
X282804Y325786D01*
X282245Y325228D01*
X281850Y324544D01*
X281646Y323781D01*
Y322991D01*
X281850Y322228D01*
X282245Y321544D01*
X282804Y320985D01*
X283488Y320590D01*
X284251Y320386D01*
X285041D01*
X285804Y320590D01*
X286488Y320985D01*
X287046Y321544D01*
X287441Y322228D01*
X287646Y322991D01*
Y323781D01*
X287441Y324544D01*
X287046Y325228D01*
X286488Y325786D01*
X285804Y326181D01*
X285041Y326386D01*
D02*
G37*
G36*
X195396Y337168D02*
X193896D01*
X192917Y337039D01*
X192005Y336662D01*
X191221Y336060D01*
X190620Y335277D01*
X190242Y334365D01*
X190113Y333386D01*
X190242Y332407D01*
X190620Y331495D01*
X191221Y330711D01*
X192005Y330110D01*
X192917Y329732D01*
X193896Y329604D01*
X195396D01*
X196375Y329732D01*
X196610Y329830D01*
X196844Y329641D01*
X197009Y329482D01*
X197168Y329381D01*
X197324Y329277D01*
X197335Y329274D01*
X197345Y329268D01*
X197530Y329236D01*
X197714Y329199D01*
X197725Y329201D01*
X197737Y329199D01*
X197920Y329240D01*
X198105Y329277D01*
X198114Y329283D01*
X198121Y329285D01*
X209590Y317816D01*
X209905Y317605D01*
X210278Y317531D01*
X282844D01*
X282917Y317039D01*
X282004Y316662D01*
X281221Y316060D01*
X280620Y315277D01*
X280242Y314365D01*
X280219Y314186D01*
X284646D01*
X289073D01*
X289049Y314365D01*
X288671Y315277D01*
X288070Y316060D01*
X287287Y316662D01*
X286375Y317039D01*
X286447Y317531D01*
X295365D01*
X297117Y315779D01*
X297112Y315772D01*
X297111Y315767D01*
X297108Y315763D01*
X297070Y315573D01*
X297031Y315383D01*
X297031Y315378D01*
X297030Y315373D01*
X297068Y315183D01*
X297105Y314992D01*
X297107Y314988D01*
X297108Y314983D01*
X297216Y314821D01*
X297322Y314659D01*
X297550Y314427D01*
X297620Y314351D01*
X297620Y314351D01*
X297620Y314351D01*
X297639Y314329D01*
X297659Y314315D01*
X297700Y314253D01*
X297703Y314251D01*
X297704Y314248D01*
X297816Y314174D01*
X297832Y314158D01*
X297892Y314013D01*
X298363Y313542D01*
X298978Y313287D01*
X299644D01*
X300259Y313542D01*
X300729Y314013D01*
X300984Y314628D01*
Y315293D01*
X300729Y315908D01*
X300259Y316379D01*
X300107Y316442D01*
X300023Y316567D01*
X300007Y316578D01*
X299996Y316593D01*
X299593Y316968D01*
X299439Y317063D01*
X299289Y317163D01*
X299270Y317167D01*
X299254Y317177D01*
X299076Y317206D01*
X298899Y317241D01*
X298880Y317237D01*
X298862Y317240D01*
X298686Y317199D01*
X298509Y317163D01*
X298494Y317154D01*
X296456Y319192D01*
X296140Y319403D01*
X295768Y319477D01*
X210681D01*
X199497Y330661D01*
X199499Y330667D01*
X199505Y330677D01*
X199542Y330861D01*
X199582Y331045D01*
X199580Y331056D01*
X199583Y331067D01*
X199546Y331251D01*
X199513Y331436D01*
X199507Y331446D01*
X199505Y331457D01*
X199400Y331613D01*
X199300Y331772D01*
X199130Y331949D01*
X199010Y332088D01*
X198950Y332168D01*
X199049Y332407D01*
X199178Y333386D01*
X199049Y334365D01*
X198671Y335277D01*
X198070Y336060D01*
X197287Y336662D01*
X196375Y337039D01*
X195396Y337168D01*
D02*
G37*
G36*
Y317168D02*
X193896D01*
X192917Y317039D01*
X192005Y316662D01*
X191221Y316060D01*
X190620Y315277D01*
X190242Y314365D01*
X190113Y313386D01*
X190242Y312407D01*
X190620Y311495D01*
X191221Y310711D01*
X192005Y310110D01*
X192917Y309732D01*
X193896Y309604D01*
X195396D01*
X196375Y309732D01*
X197287Y310110D01*
X198070Y310711D01*
X198671Y311495D01*
X199049Y312407D01*
X199178Y313386D01*
X199049Y314365D01*
X198671Y315277D01*
X198070Y316060D01*
X197287Y316662D01*
X196375Y317039D01*
X195396Y317168D01*
D02*
G37*
G36*
Y327168D02*
X193896D01*
X192917Y327039D01*
X192005Y326661D01*
X191221Y326060D01*
X190620Y325277D01*
X190242Y324365D01*
X190113Y323386D01*
X190242Y322407D01*
X190620Y321495D01*
X191221Y320711D01*
X192005Y320110D01*
X192917Y319732D01*
X193896Y319603D01*
X195396D01*
X196375Y319732D01*
X196610Y319830D01*
X196844Y319641D01*
X197009Y319482D01*
X197168Y319381D01*
X197324Y319277D01*
X197335Y319274D01*
X197345Y319268D01*
X197530Y319236D01*
X197714Y319199D01*
X197725Y319201D01*
X197737Y319199D01*
X197920Y319240D01*
X198105Y319277D01*
X198114Y319283D01*
X198121Y319285D01*
X209752Y307653D01*
X210068Y307442D01*
X210440Y307368D01*
X282403D01*
X282503Y306868D01*
X282004Y306662D01*
X281221Y306060D01*
X280620Y305277D01*
X280242Y304365D01*
X280219Y304186D01*
X284646D01*
X289073D01*
X289049Y304365D01*
X288671Y305277D01*
X288070Y306060D01*
X287287Y306662D01*
X286788Y306868D01*
X286888Y307368D01*
X297106D01*
X297108Y307360D01*
X297122Y307339D01*
X297127Y307315D01*
X297230Y307173D01*
X297325Y307027D01*
X297346Y307013D01*
X297361Y306993D01*
X297510Y306901D01*
X297654Y306803D01*
X297679Y306798D01*
X297700Y306785D01*
X297872Y306757D01*
X298043Y306721D01*
X298473Y306717D01*
X298518Y306715D01*
X298559Y306721D01*
X298627Y306709D01*
X298660Y306717D01*
X298694Y306713D01*
X298773Y306737D01*
X298880Y306693D01*
X299545D01*
X300160Y306948D01*
X300631Y307418D01*
X300886Y308033D01*
Y308699D01*
X300631Y309314D01*
X300160Y309785D01*
X299545Y310039D01*
X298880D01*
X298690Y309961D01*
X298534Y309987D01*
X298523Y309985D01*
X298513Y309986D01*
X297957Y309959D01*
X297770Y309912D01*
X297581Y309867D01*
X297577Y309864D01*
X297572Y309863D01*
X297416Y309748D01*
X297259Y309633D01*
X297256Y309629D01*
X297252Y309626D01*
X297152Y309459D01*
X297063Y309314D01*
X286671D01*
X286572Y309814D01*
X287287Y310110D01*
X288070Y310711D01*
X288671Y311495D01*
X289049Y312407D01*
X289073Y312586D01*
X284646D01*
X280219D01*
X280242Y312407D01*
X280620Y311495D01*
X281221Y310711D01*
X282004Y310110D01*
X282720Y309814D01*
X282620Y309314D01*
X210844D01*
X199497Y320660D01*
X199499Y320667D01*
X199505Y320677D01*
X199542Y320861D01*
X199582Y321045D01*
X199580Y321056D01*
X199583Y321067D01*
X199546Y321251D01*
X199513Y321437D01*
X199507Y321446D01*
X199505Y321457D01*
X199400Y321614D01*
X199300Y321772D01*
X199130Y321949D01*
X199010Y322088D01*
X198950Y322168D01*
X199049Y322407D01*
X199178Y323386D01*
X199049Y324365D01*
X198671Y325277D01*
X198070Y326060D01*
X197287Y326661D01*
X196375Y327039D01*
X195396Y327168D01*
D02*
G37*
G36*
X195446Y307162D02*
Y304186D01*
X199073D01*
X199049Y304365D01*
X198671Y305277D01*
X198070Y306060D01*
X197287Y306662D01*
X196375Y307039D01*
X195446Y307162D01*
D02*
G37*
G36*
X193846Y307162D02*
X192917Y307039D01*
X192005Y306662D01*
X191221Y306060D01*
X190620Y305277D01*
X190242Y304365D01*
X190219Y304186D01*
X193846D01*
Y307162D01*
D02*
G37*
G36*
X283846Y302586D02*
X280219D01*
X280242Y302407D01*
X280620Y301495D01*
X281221Y300711D01*
X282004Y300110D01*
X282917Y299732D01*
X283846Y299610D01*
Y302586D01*
D02*
G37*
G36*
X193846D02*
X190219D01*
X190242Y302407D01*
X190620Y301495D01*
X191221Y300711D01*
X192005Y300110D01*
X192917Y299732D01*
X193846Y299610D01*
Y302586D01*
D02*
G37*
G36*
X289073D02*
X285446D01*
Y299610D01*
X286375Y299732D01*
X287287Y300110D01*
X288070Y300711D01*
X288671Y301495D01*
X289049Y302407D01*
X289073Y302586D01*
D02*
G37*
G36*
X199073D02*
X195446D01*
Y299610D01*
X196375Y299732D01*
X197287Y300110D01*
X198070Y300711D01*
X198671Y301495D01*
X199049Y302407D01*
X199073Y302586D01*
D02*
G37*
%LPD*%
G36*
X266008Y514300D02*
X265978Y514277D01*
X265950Y514245D01*
X265926Y514205D01*
X265905Y514156D01*
X265887Y514100D01*
X265872Y514035D01*
X265861Y513962D01*
X265853Y513880D01*
X265846Y513692D01*
X264846Y513991D01*
X264846Y514091D01*
X264818Y514540D01*
X264810Y514568D01*
X264802Y514587D01*
X266008Y514300D01*
D02*
G37*
G36*
X268737Y507935D02*
X268674Y507869D01*
X268567Y507737D01*
X268523Y507672D01*
X268487Y507607D01*
X268457Y507543D01*
X268434Y507480D01*
X268418Y507417D01*
X268408Y507354D01*
X268406Y507292D01*
X267529Y508169D01*
X267590Y508172D01*
X267653Y508181D01*
X267716Y508198D01*
X267779Y508221D01*
X267843Y508251D01*
X267908Y508287D01*
X267973Y508330D01*
X268039Y508381D01*
X268105Y508437D01*
X268172Y508501D01*
X268737Y507935D01*
D02*
G37*
G36*
X275998Y495615D02*
X276016Y495367D01*
X276027Y495300D01*
X276040Y495241D01*
X276056Y495190D01*
X276074Y495146D01*
X276094Y495111D01*
X276117Y495083D01*
X274877D01*
X274899Y495111D01*
X274920Y495146D01*
X274938Y495190D01*
X274953Y495241D01*
X274967Y495300D01*
X274977Y495367D01*
X274992Y495524D01*
X274997Y495714D01*
X275997D01*
X275998Y495615D01*
D02*
G37*
G36*
X193006Y500807D02*
X192916Y500877D01*
X192814Y500918D01*
X192701Y500931D01*
X192576Y500915D01*
X192439Y500870D01*
X192290Y500797D01*
X192129Y500695D01*
X191957Y500565D01*
X191773Y500406D01*
X191577Y500219D01*
X190728Y501067D01*
X190916Y501263D01*
X191205Y501619D01*
X191307Y501780D01*
X191380Y501929D01*
X191425Y502066D01*
X191440Y502191D01*
X191428Y502305D01*
X191387Y502406D01*
X191317Y502496D01*
X193006Y500807D01*
D02*
G37*
G36*
X261733Y377399D02*
X261724Y377402D01*
X261705Y377406D01*
X261675Y377409D01*
X261525Y377415D01*
X261182Y377419D01*
Y378619D01*
X261733Y378639D01*
Y377399D01*
D02*
G37*
G36*
X209342Y496850D02*
X209253Y496848D01*
X209168Y496840D01*
X209086Y496826D01*
X209007Y496806D01*
X208931Y496780D01*
X208858Y496748D01*
X208789Y496709D01*
X208722Y496665D01*
X208658Y496615D01*
X208597Y496559D01*
X208173Y496983D01*
X208229Y497044D01*
X208279Y497108D01*
X208324Y497175D01*
X208362Y497244D01*
X208394Y497317D01*
X208420Y497393D01*
X208440Y497472D01*
X208454Y497554D01*
X208463Y497639D01*
X208465Y497727D01*
X209342Y496850D01*
D02*
G37*
G36*
X192800Y490881D02*
X192725Y490939D01*
X192641Y490974D01*
X192547Y490986D01*
X192444Y490975D01*
X192332Y490940D01*
X192211Y490881D01*
X192080Y490800D01*
X191940Y490695D01*
X191790Y490566D01*
X191631Y490415D01*
X190924Y491122D01*
X191076Y491280D01*
X191205Y491430D01*
X191309Y491570D01*
X191391Y491701D01*
X191449Y491822D01*
X191484Y491934D01*
X191496Y492037D01*
X191484Y492131D01*
X191449Y492215D01*
X191391Y492290D01*
X192800Y490881D01*
D02*
G37*
G36*
X199827Y467319D02*
X200015Y467157D01*
X200070Y467117D01*
X200121Y467084D01*
X200168Y467059D01*
X200211Y467041D01*
X200251Y467031D01*
X200286Y467028D01*
X199409Y466151D01*
X199406Y466186D01*
X199396Y466226D01*
X199378Y466269D01*
X199353Y466316D01*
X199320Y466367D01*
X199281Y466422D01*
X199179Y466544D01*
X199049Y466681D01*
X199756Y467388D01*
X199827Y467319D01*
D02*
G37*
G36*
X227370Y528315D02*
X227435Y528261D01*
X227503Y528213D01*
X227574Y528171D01*
X227646Y528136D01*
X227720Y528107D01*
X227797Y528085D01*
X227875Y528069D01*
X227956Y528059D01*
X228038Y528056D01*
Y527456D01*
X227956Y527453D01*
X227875Y527443D01*
X227797Y527427D01*
X227720Y527405D01*
X227646Y527376D01*
X227574Y527341D01*
X227503Y527299D01*
X227435Y527251D01*
X227370Y527197D01*
X227306Y527136D01*
Y528376D01*
X227370Y528315D01*
D02*
G37*
G36*
X260725Y496790D02*
X260789Y496740D01*
X260856Y496696D01*
X260925Y496658D01*
X260998Y496626D01*
X261074Y496600D01*
X261153Y496579D01*
X261235Y496565D01*
X261320Y496557D01*
X261408Y496555D01*
X260531Y495678D01*
X260529Y495766D01*
X260521Y495851D01*
X260507Y495933D01*
X260487Y496012D01*
X260461Y496088D01*
X260429Y496161D01*
X260391Y496231D01*
X260346Y496298D01*
X260296Y496362D01*
X260240Y496422D01*
X260664Y496847D01*
X260725Y496790D01*
D02*
G37*
G36*
X237502Y511714D02*
X237510Y511629D01*
X237524Y511547D01*
X237544Y511468D01*
X237571Y511392D01*
X237603Y511319D01*
X237641Y511249D01*
X237685Y511182D01*
X237735Y511119D01*
X237791Y511058D01*
X237367Y510634D01*
X237306Y510690D01*
X237243Y510740D01*
X237176Y510784D01*
X237106Y510822D01*
X237033Y510855D01*
X236957Y510881D01*
X236878Y510901D01*
X236796Y510915D01*
X236711Y510923D01*
X236623Y510925D01*
X237500Y511802D01*
X237502Y511714D01*
D02*
G37*
G36*
X240165Y505480D02*
X240231Y505426D01*
X240299Y505378D01*
X240369Y505337D01*
X240441Y505301D01*
X240515Y505272D01*
X240592Y505250D01*
X240670Y505234D01*
X240751Y505225D01*
X240833Y505221D01*
Y504621D01*
X240751Y504618D01*
X240670Y504608D01*
X240592Y504593D01*
X240515Y504570D01*
X240441Y504541D01*
X240369Y504506D01*
X240299Y504464D01*
X240231Y504416D01*
X240165Y504362D01*
X240101Y504301D01*
Y505541D01*
X240165Y505480D01*
D02*
G37*
G36*
X256001Y486948D02*
X256064Y486898D01*
X256131Y486854D01*
X256201Y486815D01*
X256274Y486783D01*
X256350Y486757D01*
X256429Y486737D01*
X256511Y486723D01*
X256596Y486715D01*
X256684Y486713D01*
X255807Y485836D01*
X255805Y485924D01*
X255797Y486009D01*
X255783Y486091D01*
X255763Y486170D01*
X255736Y486246D01*
X255704Y486319D01*
X255666Y486388D01*
X255622Y486455D01*
X255572Y486519D01*
X255516Y486580D01*
X255940Y487004D01*
X256001Y486948D01*
D02*
G37*
G36*
X253636Y486576D02*
X253580Y486515D01*
X253529Y486451D01*
X253485Y486384D01*
X253447Y486314D01*
X253415Y486242D01*
X253389Y486166D01*
X253369Y486087D01*
X253355Y486005D01*
X253346Y485920D01*
X253344Y485831D01*
X252467Y486708D01*
X252555Y486711D01*
X252641Y486719D01*
X252723Y486733D01*
X252802Y486753D01*
X252877Y486779D01*
X252950Y486811D01*
X253020Y486849D01*
X253087Y486894D01*
X253151Y486944D01*
X253212Y487000D01*
X253636Y486576D01*
D02*
G37*
G36*
X282800Y480881D02*
X282725Y480939D01*
X282641Y480974D01*
X282547Y480986D01*
X282444Y480975D01*
X282332Y480940D01*
X282211Y480881D01*
X282080Y480800D01*
X281940Y480695D01*
X281790Y480566D01*
X281631Y480415D01*
X280924Y481122D01*
X281076Y481280D01*
X281205Y481430D01*
X281310Y481570D01*
X281391Y481701D01*
X281450Y481822D01*
X281484Y481934D01*
X281496Y482037D01*
X281484Y482131D01*
X281449Y482215D01*
X281391Y482290D01*
X282800Y480881D01*
D02*
G37*
G36*
X230975Y428944D02*
X231010Y428923D01*
X231054Y428905D01*
X231105Y428890D01*
X231164Y428876D01*
X231231Y428866D01*
X231388Y428851D01*
X231578Y428847D01*
Y427846D01*
X231479Y427845D01*
X231231Y427827D01*
X231164Y427816D01*
X231105Y427803D01*
X231054Y427788D01*
X231010Y427770D01*
X230975Y427749D01*
X230948Y427726D01*
Y428967D01*
X230975Y428944D01*
D02*
G37*
G36*
X223228Y476181D02*
X230118Y469291D01*
X240748D01*
X242126Y467913D01*
Y464764D01*
X241437Y464075D01*
X238386D01*
X237106Y462795D01*
X230315D01*
X226181Y466929D01*
X210630D01*
X207382Y470177D01*
Y473130D01*
Y473228D01*
X210335Y476181D01*
X223228Y476181D01*
D02*
G37*
G36*
X303988Y438835D02*
X303892Y438846D01*
X303792Y438841D01*
X303687Y438820D01*
X303578Y438784D01*
X303464Y438731D01*
X303345Y438663D01*
X303222Y438580D01*
X303095Y438480D01*
X302962Y438365D01*
X302826Y438234D01*
X301838Y439792D01*
X301973Y439929D01*
X302300Y440301D01*
X302383Y440411D01*
X302512Y440611D01*
X302556Y440700D01*
X302589Y440783D01*
X302608Y440859D01*
X303988Y438835D01*
D02*
G37*
G36*
X258195Y439703D02*
X258246Y439677D01*
X258312Y439655D01*
X258393Y439635D01*
X258488Y439619D01*
X258724Y439595D01*
X259018Y439583D01*
X259187Y439581D01*
Y437781D01*
X259018Y437780D01*
X258488Y437744D01*
X258393Y437727D01*
X258312Y437708D01*
X258246Y437685D01*
X258195Y437660D01*
X258158Y437631D01*
Y439731D01*
X258195Y439703D01*
D02*
G37*
G36*
X268951Y428221D02*
X267385Y427840D01*
X267136Y429640D01*
X267289Y429641D01*
X267819Y429673D01*
X267877Y429686D01*
X267920Y429700D01*
X267946Y429715D01*
X267957Y429733D01*
X268951Y428221D01*
D02*
G37*
G36*
X247437Y429677D02*
X247469Y429669D01*
X247516Y429662D01*
X247656Y429651D01*
X248119Y429641D01*
X248273Y429640D01*
Y427840D01*
X247421Y427795D01*
Y429685D01*
X247437Y429677D01*
D02*
G37*
G36*
X332000Y532000D02*
Y526000D01*
X328000Y522000D01*
Y391000D01*
X320000Y383000D01*
X287646D01*
Y383781D01*
X287441Y384544D01*
X287046Y385228D01*
X286488Y385786D01*
X285804Y386181D01*
X285041Y386386D01*
X284251D01*
X283488Y386181D01*
X282804Y385786D01*
X282245Y385228D01*
X281850Y384544D01*
X281646Y383781D01*
Y383000D01*
X261000D01*
X258000Y386000D01*
Y389000D01*
X260000Y391000D01*
X282789D01*
X282804Y390985D01*
X283488Y390590D01*
X284251Y390386D01*
X285041D01*
X285804Y390590D01*
X286488Y390985D01*
X286503Y391000D01*
X313000D01*
X322000Y400000D01*
Y437744D01*
X322285Y438029D01*
X322539Y438644D01*
Y439309D01*
X322285Y439924D01*
X322000Y440209D01*
Y529000D01*
X326000Y533000D01*
X331000D01*
X332000Y532000D01*
D02*
G37*
G36*
X197905Y382406D02*
X197863Y382305D01*
X197851Y382191D01*
X197867Y382066D01*
X197911Y381929D01*
X197985Y381780D01*
X198086Y381619D01*
X198217Y381447D01*
X198375Y381263D01*
X198563Y381067D01*
X197714Y380219D01*
X197519Y380406D01*
X197162Y380695D01*
X197002Y380797D01*
X196853Y380870D01*
X196716Y380915D01*
X196590Y380931D01*
X196477Y380918D01*
X196375Y380877D01*
X196285Y380807D01*
X197974Y382496D01*
X197905Y382406D01*
D02*
G37*
G36*
X302227Y355512D02*
X302566Y355216D01*
X302579Y355213D01*
X301774Y354270D01*
X301398Y354643D01*
X302155Y355583D01*
X302227Y355512D01*
D02*
G37*
G36*
X197905Y372406D02*
X197863Y372305D01*
X197851Y372191D01*
X197867Y372066D01*
X197911Y371929D01*
X197985Y371780D01*
X198086Y371619D01*
X198217Y371447D01*
X198375Y371263D01*
X198563Y371067D01*
X197714Y370219D01*
X197519Y370406D01*
X197162Y370695D01*
X197002Y370797D01*
X196853Y370870D01*
X196716Y370915D01*
X196590Y370931D01*
X196477Y370918D01*
X196375Y370877D01*
X196285Y370807D01*
X197974Y372496D01*
X197905Y372406D01*
D02*
G37*
G36*
X299719Y347539D02*
X298819Y346686D01*
X298816Y346696D01*
X298805Y346714D01*
X298786Y346738D01*
X298727Y346807D01*
X298446Y347097D01*
X299325Y347915D01*
X299719Y347539D01*
D02*
G37*
G36*
X197905Y362406D02*
X197863Y362304D01*
X197851Y362191D01*
X197867Y362066D01*
X197911Y361929D01*
X197985Y361780D01*
X198086Y361619D01*
X198217Y361447D01*
X198375Y361263D01*
X198563Y361067D01*
X197714Y360219D01*
X197519Y360406D01*
X197162Y360695D01*
X197002Y360797D01*
X196853Y360870D01*
X196716Y360915D01*
X196590Y360931D01*
X196477Y360918D01*
X196375Y360877D01*
X196285Y360807D01*
X197974Y362496D01*
X197905Y362406D01*
D02*
G37*
G36*
X299401Y339567D02*
X298524Y338690D01*
X298520Y338699D01*
X298509Y338715D01*
X298490Y338738D01*
X298389Y338849D01*
X298149Y339093D01*
X298997Y339942D01*
X299401Y339567D01*
D02*
G37*
G36*
X197905Y352406D02*
X197863Y352305D01*
X197851Y352191D01*
X197867Y352066D01*
X197911Y351929D01*
X197985Y351780D01*
X198086Y351619D01*
X198217Y351447D01*
X198375Y351263D01*
X198563Y351067D01*
X197714Y350219D01*
X197519Y350406D01*
X197162Y350695D01*
X197002Y350797D01*
X196853Y350870D01*
X196716Y350915D01*
X196590Y350931D01*
X196477Y350918D01*
X196375Y350877D01*
X196285Y350807D01*
X197974Y352496D01*
X197905Y352406D01*
D02*
G37*
G36*
X299204Y331693D02*
X298327Y330816D01*
X298323Y330825D01*
X298312Y330841D01*
X298293Y330864D01*
X298192Y330975D01*
X297952Y331220D01*
X298800Y332068D01*
X299204Y331693D01*
D02*
G37*
G36*
X197905Y342406D02*
X197863Y342304D01*
X197851Y342191D01*
X197867Y342066D01*
X197911Y341929D01*
X197985Y341780D01*
X198086Y341619D01*
X198217Y341447D01*
X198375Y341263D01*
X198563Y341067D01*
X197714Y340219D01*
X197519Y340406D01*
X197162Y340695D01*
X197002Y340797D01*
X196853Y340870D01*
X196716Y340915D01*
X196590Y340931D01*
X196477Y340918D01*
X196375Y340877D01*
X196285Y340807D01*
X197974Y342496D01*
X197905Y342406D01*
D02*
G37*
G36*
X299302Y323720D02*
X298425Y322844D01*
X298422Y322853D01*
X298410Y322869D01*
X298392Y322892D01*
X298290Y323002D01*
X298050Y323247D01*
X298899Y324096D01*
X299302Y323720D01*
D02*
G37*
G36*
X197905Y332406D02*
X197863Y332305D01*
X197851Y332191D01*
X197867Y332066D01*
X197911Y331929D01*
X197985Y331780D01*
X198086Y331619D01*
X198217Y331447D01*
X198375Y331263D01*
X198563Y331067D01*
X197714Y330219D01*
X197519Y330406D01*
X197162Y330695D01*
X197002Y330797D01*
X196853Y330870D01*
X196716Y330915D01*
X196590Y330931D01*
X196477Y330918D01*
X196375Y330877D01*
X196285Y330807D01*
X197974Y332496D01*
X197905Y332406D01*
D02*
G37*
G36*
X299302Y315846D02*
X298425Y314969D01*
X298422Y314979D01*
X298410Y314995D01*
X298392Y315018D01*
X298290Y315128D01*
X298050Y315373D01*
X298899Y316221D01*
X299302Y315846D01*
D02*
G37*
G36*
X197905Y322406D02*
X197863Y322305D01*
X197851Y322191D01*
X197867Y322066D01*
X197911Y321929D01*
X197985Y321780D01*
X198086Y321619D01*
X198217Y321447D01*
X198375Y321263D01*
X198563Y321067D01*
X197714Y320219D01*
X197519Y320406D01*
X197162Y320695D01*
X197002Y320797D01*
X196853Y320870D01*
X196716Y320915D01*
X196590Y320931D01*
X196477Y320918D01*
X196375Y320877D01*
X196285Y320807D01*
X197974Y322496D01*
X197905Y322406D01*
D02*
G37*
G36*
X298598Y307728D02*
X298590Y307731D01*
X298572Y307733D01*
X298504Y307736D01*
X298054Y307741D01*
X298007Y308941D01*
X298563Y308968D01*
X298598Y307728D01*
D02*
G37*
D11*
X265347Y514645D02*
X265551Y514850D01*
Y515059D01*
X265347Y506307D02*
X275497Y496157D01*
X265347Y506307D02*
Y514645D01*
X275497Y494451D02*
Y496157D01*
X197736Y468701D02*
X200295Y466142D01*
X192147Y468701D02*
X197736D01*
X231791Y428346D02*
X276318Y472873D01*
X230315Y428346D02*
X231791D01*
X276318Y472873D02*
Y475808D01*
X283896Y483386D01*
X284646D01*
X193896Y493386D02*
X194646D01*
X188976Y488467D02*
X193896Y493386D01*
X188976Y471872D02*
Y488467D01*
Y471872D02*
X192147Y468701D01*
D12*
X250000Y437008D02*
X261480Y448488D01*
X263547D01*
X263681Y448622D01*
D14*
X267520Y507283D02*
X268837Y508601D01*
X293143Y509154D02*
X293406D01*
X268837Y508601D02*
X292590D01*
X293143Y509154D01*
D15*
X204232Y462205D02*
X224702Y441735D01*
X225199D02*
X226279Y442815D01*
X224307Y440780D02*
X225143D01*
X225962Y439961D01*
X224702Y441735D02*
X225199D01*
X225962Y439961D02*
X226279D01*
X203278Y461809D02*
X224307Y440780D01*
X203278Y461809D02*
Y493140D01*
X204232Y462205D02*
Y492618D01*
X203278Y493140D02*
X207328Y497191D01*
Y498531D01*
X204232Y492618D02*
X209350Y497736D01*
X229331Y527756D02*
X261417Y495669D01*
X226673Y527756D02*
X229331D01*
X236614Y511811D02*
X255118Y493307D01*
X241732Y504921D02*
X253937Y492717D01*
X239469Y504921D02*
X241732D01*
X253937Y487301D02*
Y492717D01*
X252459Y485823D02*
X253937Y487301D01*
X255118Y487402D02*
X256693Y485827D01*
X255118Y487402D02*
Y493307D01*
D73*
X210278Y318504D02*
X295768D01*
X299311Y314961D01*
X195396Y333386D02*
X210278Y318504D01*
X210440Y308341D02*
X299187D01*
X299213Y308366D01*
X195396Y323386D02*
X210440Y308341D01*
X289665Y348425D02*
X299410Y338681D01*
X210356Y348425D02*
X289665D01*
X287730Y358661D02*
X299705Y346687D01*
Y346654D02*
Y346687D01*
X288484Y368406D02*
X302559Y354331D01*
X302658D01*
X210376Y368406D02*
X288484D01*
X195396Y383386D02*
X210376Y368406D01*
X194646Y383386D02*
X195396D01*
X210120Y358661D02*
X287730D01*
X195396Y363386D02*
X210356Y348425D01*
X195396Y373386D02*
X210120Y358661D01*
X194646Y373386D02*
X195396D01*
X194646Y363386D02*
X195396D01*
X291732Y338287D02*
X299213Y330807D01*
X210494Y338287D02*
X291732D01*
X194646Y353386D02*
X195396D01*
X210494Y338287D01*
X293406Y328740D02*
X299311Y322835D01*
X210041Y328740D02*
X293406D01*
X194646Y343386D02*
X195396D01*
X210041Y328740D01*
X194646Y333386D02*
X195396D01*
X194646Y323386D02*
X195396D01*
X251913Y378019D02*
X262366D01*
X231506Y398425D02*
X251913Y378019D01*
X185728Y404978D02*
X192281Y398425D01*
X185728Y404978D02*
Y495219D01*
X192281Y398425D02*
X231506D01*
X193896Y503386D02*
X194646D01*
X185728Y495219D02*
X193896Y503386D01*
D76*
X257087Y438681D02*
X302001D01*
X303871Y440551D01*
X304331D01*
X269048Y429528D02*
X269291D01*
X268260Y428740D02*
X269048Y429528D01*
X246457Y428740D02*
X268260D01*
D77*
X243438Y464928D02*
X245866Y462500D01*
X240846Y464961D02*
X240879Y464928D01*
X243438D01*
X245866Y457821D02*
Y462500D01*
X243701Y455610D02*
Y455656D01*
X245866Y457821D01*
D80*
X194646Y313386D02*
D03*
Y493386D02*
D03*
X284646Y483386D02*
D03*
Y473386D02*
D03*
Y513386D02*
D03*
Y313386D02*
D03*
Y303386D02*
D03*
X194646Y513386D02*
D03*
Y503386D02*
D03*
Y473386D02*
D03*
Y463386D02*
D03*
Y383386D02*
D03*
Y373386D02*
D03*
Y363386D02*
D03*
Y353386D02*
D03*
Y343386D02*
D03*
Y333386D02*
D03*
Y323386D02*
D03*
Y303386D02*
D03*
D81*
X246000Y333727D02*
D03*
X268996Y313976D02*
D03*
Y324500D02*
D03*
Y333727D02*
D03*
Y343602D02*
D03*
Y353478D02*
D03*
Y363386D02*
D03*
Y373228D02*
D03*
X330000Y528000D02*
D03*
X327000Y531000D02*
D03*
Y528000D02*
D03*
X330000Y531000D02*
D03*
X260000Y387000D02*
D03*
X262000Y385000D02*
D03*
Y389000D02*
D03*
X299213Y308366D02*
D03*
X247500Y313976D02*
D03*
X308563Y499902D02*
D03*
X293898Y500689D02*
D03*
X299410Y338681D02*
D03*
X299213Y342520D02*
D03*
X299705Y346654D02*
D03*
X302658Y354331D02*
D03*
X224311Y363386D02*
D03*
X246000Y343602D02*
D03*
X224311Y353478D02*
D03*
Y343602D02*
D03*
X299213Y330807D02*
D03*
Y326772D02*
D03*
Y334646D02*
D03*
X299311Y322835D02*
D03*
X299213Y305512D02*
D03*
X299311Y314961D02*
D03*
X299213Y318898D02*
D03*
X246000Y324500D02*
D03*
X299213Y311811D02*
D03*
X227362Y301969D02*
D03*
X246573Y301155D02*
D03*
X268522D02*
D03*
X293406Y509154D02*
D03*
X267520Y507283D02*
D03*
X275497Y494451D02*
D03*
X265551Y515059D02*
D03*
X274705Y511221D02*
D03*
X275886Y520276D02*
D03*
X273524D02*
D03*
X271161Y520374D02*
D03*
X249803Y452559D02*
D03*
X248622Y465256D02*
D03*
X249213Y460925D02*
D03*
X245177Y467815D02*
D03*
X252067Y467717D02*
D03*
X251772Y478248D02*
D03*
X251969Y481201D02*
D03*
X219488Y455807D02*
D03*
X212205Y458366D02*
D03*
X219980Y452067D02*
D03*
X275098Y433563D02*
D03*
X270866Y425000D02*
D03*
X267913Y453248D02*
D03*
X267717Y443996D02*
D03*
X281594Y488779D02*
D03*
X288583Y490945D02*
D03*
X289567Y496555D02*
D03*
X206594Y477461D02*
D03*
Y480315D02*
D03*
X206693Y483268D02*
D03*
X206890Y486221D02*
D03*
X231004Y484842D02*
D03*
X232776Y502756D02*
D03*
X225689Y500591D02*
D03*
X223524Y503248D02*
D03*
X220965Y505807D02*
D03*
X219783Y509547D02*
D03*
X275394Y458858D02*
D03*
X279528Y462992D02*
D03*
X294882Y469685D02*
D03*
X289764Y464961D02*
D03*
X209350Y497736D02*
D03*
X200295Y466142D02*
D03*
X273622Y475197D02*
D03*
X226279Y439961D02*
D03*
Y442815D02*
D03*
X241732Y445866D02*
D03*
X271457Y463681D02*
D03*
X230315Y428346D02*
D03*
X240354Y431791D02*
D03*
X228839Y473327D02*
D03*
X226279Y464173D02*
D03*
X224016Y461909D02*
D03*
X227362Y461417D02*
D03*
X223524Y465256D02*
D03*
X225590Y478051D02*
D03*
Y480709D02*
D03*
X237008Y475787D02*
D03*
X237106Y478346D02*
D03*
Y480807D02*
D03*
X242323Y462303D02*
D03*
Y457874D02*
D03*
X243701Y455610D02*
D03*
X217028Y468799D02*
D03*
X213779Y468701D02*
D03*
X218406Y471457D02*
D03*
X215453Y471358D02*
D03*
X212205Y471260D02*
D03*
X210531Y474016D02*
D03*
X213878Y474114D02*
D03*
X216929Y474213D02*
D03*
X219783Y474311D02*
D03*
X240846Y464961D02*
D03*
X236614Y463681D02*
D03*
X238583Y465551D02*
D03*
X240846Y467421D02*
D03*
X238583Y468307D02*
D03*
X236417Y467126D02*
D03*
X243307Y460039D02*
D03*
X239469Y462205D02*
D03*
X295669Y493898D02*
D03*
X239469Y504921D02*
D03*
X261417Y495669D02*
D03*
X228346Y521654D02*
D03*
Y517717D02*
D03*
Y513779D02*
D03*
X305118D02*
D03*
X338583Y529528D02*
D03*
Y520669D02*
D03*
X226673Y527756D02*
D03*
X230315Y523622D02*
D03*
Y515748D02*
D03*
Y519685D02*
D03*
X236614Y511811D02*
D03*
X240551Y488681D02*
D03*
X252459Y485823D02*
D03*
X256693Y485827D02*
D03*
X262366Y378019D02*
D03*
X224311Y333727D02*
D03*
X225098Y313976D02*
D03*
X224311Y324500D02*
D03*
Y373228D02*
D03*
X334646Y317618D02*
D03*
Y339567D02*
D03*
X294094Y369291D02*
D03*
X299213Y350394D02*
D03*
X304331Y364961D02*
D03*
X334646Y361516D02*
D03*
X246000Y353478D02*
D03*
Y363386D02*
D03*
Y373228D02*
D03*
X306988Y490846D02*
D03*
X307087Y485039D02*
D03*
X316929Y480315D02*
D03*
X316535Y462598D02*
D03*
X305118Y465748D02*
D03*
X316929Y450787D02*
D03*
X312086Y457339D02*
D03*
X297638Y457874D02*
D03*
X298326Y466535D02*
D03*
X203937Y509055D02*
D03*
X207087Y507087D02*
D03*
X295669Y489764D02*
D03*
X278543Y401575D02*
D03*
X314173Y420079D02*
D03*
Y427953D02*
D03*
X304331Y449606D02*
D03*
X299213Y453937D02*
D03*
X311417Y482283D02*
D03*
X307087Y474016D02*
D03*
X295276Y483858D02*
D03*
X289665Y476083D02*
D03*
X265748Y434252D02*
D03*
X279134Y447638D02*
D03*
X200394Y488583D02*
D03*
X261811Y403543D02*
D03*
X242520Y411417D02*
D03*
X245177Y415256D02*
D03*
X264567Y503150D02*
D03*
X270177Y483760D02*
D03*
X268701Y480315D02*
D03*
X242126Y414370D02*
D03*
Y408465D02*
D03*
X252953Y404528D02*
D03*
Y396654D02*
D03*
X268701Y401575D02*
D03*
Y394685D02*
D03*
X290354D02*
D03*
Y401575D02*
D03*
X278543Y394685D02*
D03*
X312008Y393701D02*
D03*
X299213D02*
D03*
Y403543D02*
D03*
X312008Y402559D02*
D03*
X330709Y420276D02*
D03*
X334646Y427165D02*
D03*
X342520Y436024D02*
D03*
X310039D02*
D03*
X320866Y438976D02*
D03*
X329724Y437992D02*
D03*
X330709Y449803D02*
D03*
X339567Y468504D02*
D03*
Y474409D02*
D03*
X250000Y486614D02*
D03*
X247441Y487992D02*
D03*
X246850Y490945D02*
D03*
Y493701D02*
D03*
X246949Y496752D02*
D03*
D82*
X257087Y438681D02*
D03*
D83*
X263681Y448622D02*
D03*
X250000Y437008D02*
D03*
X269291Y429528D02*
D03*
X246457Y428740D02*
D03*
D84*
X304331Y440551D02*
D03*
M02*
